<?xml version="1.0" encoding="UTF-8"?>
<svg version="1.1" xmlns="http://www.w3.org/2000/svg" width="512" height="512">
<path d="M0 0 C1.78455601 0.00056479 3.56911248 0.00024624 5.35366821 -0.00088501 C10.17740272 -0.00145689 15.00103698 0.01027064 19.82474828 0.02426291 C24.87359304 0.03679784 29.9224403 0.03794294 34.97129822 0.04031372 C44.52270694 0.04652038 54.07406967 0.06292016 63.62545818 0.0830127 C74.5033253 0.10539707 85.38119466 0.11637151 96.2590791 0.12640357 C118.62709644 0.14728712 140.99505077 0.18395318 163.36303711 0.22705078 C163.36303711 13.42705078 163.36303711 26.62705078 163.36303711 40.22705078 C165.01303711 40.88705078 166.66303711 41.54705078 168.36303711 42.22705078 C179.97230785 48.75312886 190.24868389 56.60250221 200.36303711 65.22705078 C201.1300293 65.87416016 201.89702148 66.52126953 202.68725586 67.18798828 C204.60771714 68.83869924 206.48887059 70.52391086 208.36303711 72.22705078 C208.84869141 72.6637207 209.3343457 73.10039063 209.8347168 73.55029297 C216.41210055 79.47189009 222.73169601 85.37985194 228.36303711 92.22705078 C229.46131836 93.49355469 229.46131836 93.49355469 230.58178711 94.78564453 C258.52143471 127.36716397 277.61315418 167.044793 286.17553711 209.03955078 C286.37042725 209.99168457 286.56531738 210.94381836 286.76611328 211.92480469 C289.75917445 227.50877326 290.74491014 243.01010233 290.67553711 258.85205078 C290.67280289 260.15866165 290.67280289 260.15866165 290.67001343 261.4916687 C290.62055859 275.58919592 289.91057614 289.33322323 287.36303711 303.22705078 C287.20206543 304.14550781 287.04109375 305.06396484 286.87524414 306.01025391 C280.19224262 343.16799915 264.77413846 378.86077183 242.36303711 409.22705078 C241.92523926 409.82179199 241.48744141 410.4165332 241.03637695 411.02929688 C233.82245855 420.72893002 225.75031156 429.53680435 217.36303711 438.22705078 C216.46327148 439.16806641 215.56350586 440.10908203 214.63647461 441.07861328 C208.90802905 446.95254317 202.80910003 452.15917182 196.36303711 457.22705078 C195.40010742 458.00693359 194.43717773 458.78681641 193.44506836 459.59033203 C171.59501158 476.95406537 146.70696218 490.15706556 120.36303711 499.22705078 C119.58573242 499.50242676 118.80842773 499.77780273 118.00756836 500.06152344 C92.21123465 509.14389135 65.52632831 512.64531276 38.30053711 512.53955078 C37.30347748 512.53739563 36.30641785 512.53524048 35.27914429 512.53302002 C20.77783734 512.48268998 6.61633574 512.12709532 -7.63696289 509.22705078 C-8.63501953 509.03369141 -9.63307617 508.84033203 -10.66137695 508.64111328 C-68.84127396 497.14353071 -124.17428475 465.62161344 -160.63696289 418.22705078 C-161.40911133 417.27185547 -162.18125977 416.31666016 -162.97680664 415.33251953 C-198.04349031 371.29142392 -216.19491636 315.64748281 -215.94946289 259.60205078 C-215.94764008 258.7313092 -215.94581726 257.86056763 -215.94393921 256.96343994 C-215.86720923 235.10064477 -213.17074611 214.39072348 -207.63696289 193.22705078 C-207.41669434 192.38190918 -207.19642578 191.53676758 -206.96948242 190.66601562 C-197.03588166 153.42042323 -177.34177904 118.80190337 -151.63696289 90.22705078 C-151.14196289 89.67033691 -150.64696289 89.11362305 -150.13696289 88.54003906 C-139.03272503 76.07307409 -126.96325738 65.26947039 -113.63696289 55.22705078 C-113.06719727 54.79505371 -112.49743164 54.36305664 -111.91040039 53.91796875 C-96.19633539 42.08308932 -78.65436337 32.90169961 -60.57446289 25.22705078 C-55.5436895 22.94651592 -52.71537719 20.56311121 -49.35961914 16.24267578 C-36.804933 1.55283894 -17.86507618 -0.07930335 0 0 Z " fill="#FEBD81" transform="translate(218.636962890625,-0.22705078125)"/>
<path d="M0 0 C19.01906432 13.48624561 31.68935102 33.3786779 37 56 C37.125 58.9609375 37.125 58.9609375 37 61 C38.134375 61.04125 39.26875 61.0825 40.4375 61.125 C59.65686333 63.30764063 76.89131437 74.23245314 89.28515625 88.66015625 C101.63907249 104.82260158 108.13831366 124.43280119 106.6640625 144.86425781 C104.93738873 153.01771293 98.1819695 158.23823528 92.01171875 163.31640625 C89.35384597 165.54076192 87.05929324 167.97419422 84.6875 170.5 C79.74761959 175.37401534 74.4515499 179.71400475 69 184 C68.03707031 184.77988281 67.07414062 185.55976563 66.08203125 186.36328125 C44.23197447 203.72701459 19.34392507 216.93001478 -7 226 C-7.77730469 226.27537598 -8.55460937 226.55075195 -9.35546875 226.83447266 C-35.15180246 235.91684057 -61.8367088 239.41826198 -89.0625 239.3125 C-90.05955963 239.31034485 -91.05661926 239.3081897 -92.08389282 239.30596924 C-106.58519977 239.2556392 -120.74670137 238.90004454 -135 236 C-135.99805664 235.80664062 -136.99611328 235.61328125 -138.02441406 235.4140625 C-192.05044718 224.7373716 -239.48320398 197.67222182 -277.2331543 157.83374023 C-278.95810441 155.99672087 -278.95810441 155.99672087 -280.77661133 154.41821289 C-284.47484089 150.85247357 -285.41687282 148.10742003 -285.76171875 142.97265625 C-285.77604052 140.6691825 -285.74955404 138.36518229 -285.6875 136.0625 C-285.65970459 134.25749023 -285.65970459 134.25749023 -285.63134766 132.41601562 C-285.05972916 113.85463959 -278.17126553 98.94774216 -266 85 C-265.48050781 84.38511719 -264.96101563 83.77023437 -264.42578125 83.13671875 C-252.46874768 70.03518323 -235.57208534 64.21985597 -218.7109375 60.796875 C-215.20143284 60.20465825 -215.20143284 60.20465825 -213 59 C-212.38806623 56.64617556 -211.86786792 54.31632799 -211.375 51.9375 C-207.14648306 33.60083095 -196.00830048 16.63067518 -181.95703125 4.19140625 C-181.31121094 3.79824219 -180.66539062 3.40507812 -180 3 C-176.17330311 4.27556563 -175.45847907 5.83723148 -173.1875 9.125 C-161.6069937 25.40484219 -145.19314331 38.60228556 -126 45 C-125.9906543 45.97235596 -125.98130859 46.94471191 -125.97167969 47.9465332 C-125.93135858 51.60550278 -125.86549142 55.26366813 -125.79248047 58.92211914 C-125.76451204 60.49590609 -125.74317938 62.06982721 -125.72900391 63.64379883 C-125.60731314 76.40104744 -124.4983813 87.9010202 -115.390625 97.73828125 C-108.65816502 104.23427053 -100.47745374 108.18938426 -91.0625 108.5625 C-80.42886693 108.03360202 -70.4292672 104.84950858 -63 97 C-54.43776586 85.80323227 -53.52226412 73.96590435 -53.3125 60.375 C-53.27925644 58.87887768 -53.24476053 57.38278265 -53.20898438 55.88671875 C-53.12489603 52.25801284 -53.05771315 48.62923255 -53 45 C-51.99582031 44.52691406 -50.99164063 44.05382812 -49.95703125 43.56640625 C-28.61785788 33.32570154 -12.90217594 19.78935144 0 0 Z " fill="#FE3B3C" transform="translate(346,273)"/>
<path d="M0 0 C-0.83144531 1.57587891 -0.83144531 1.57587891 -1.6796875 3.18359375 C-2.41200293 4.60128132 -3.14374297 6.01926621 -3.875 7.4375 C-4.23980469 8.12521484 -4.60460937 8.81292969 -4.98046875 9.52148438 C-5.33496094 10.21435547 -5.68945312 10.90722656 -6.0546875 11.62109375 C-6.54171143 12.55586548 -6.54171143 12.55586548 -7.03857422 13.50952148 C-10.67563715 22.93097375 -10.29082747 32.53765973 -10.2746582 42.45898438 C-10.2790108 44.22581191 -10.28419577 45.99263757 -10.29014587 47.75946045 C-10.30349408 52.5409296 -10.30411877 57.32231949 -10.30158257 62.10380363 C-10.30050915 66.10900835 -10.30540615 70.11419728 -10.310188 74.11939859 C-10.32127063 83.58091326 -10.32172882 93.04238824 -10.31567383 102.50390625 C-10.30964646 112.22690572 -10.32191642 121.94976003 -10.3432439 131.67273474 C-10.36093469 140.04934272 -10.36684918 148.42590482 -10.36360615 156.80253077 C-10.36180365 161.79240014 -10.36432449 166.78216616 -10.37832069 171.77201843 C-10.39101521 176.47367016 -10.38884661 181.17509833 -10.37590981 185.87674713 C-10.37356882 187.58860097 -10.37618804 189.30047111 -10.38453293 191.01230621 C-10.45291157 206.14812869 -9.10115143 220.71276439 -3 234.75 C-2.65710938 235.5853125 -2.31421875 236.420625 -1.9609375 237.28125 C-0.54135338 240.68391728 0.83203782 243.74665704 2.875 246.828125 C4 249 4 249 3.375 251.16015625 C2 253 2 253 -1 255.4375 C-15.32571398 267.32099247 -25.34768226 286.72730674 -28.70703125 304.8046875 C-30 308 -30 308 -33.01953125 309.41796875 C-34.27121094 309.67191406 -35.52289063 309.92585938 -36.8125 310.1875 C-38.17883705 310.4940879 -39.54471693 310.80271959 -40.91015625 311.11328125 C-41.5973877 311.25975098 -42.28461914 311.4062207 -42.99267578 311.55712891 C-62.62354434 315.88824002 -78.82067644 326.47955231 -90.1640625 343.1875 C-100.51848912 359.76176485 -101.88301387 375.82345011 -102 395 C-140.50516431 357.08925504 -159.86295864 294.90413383 -160.32199097 241.88623047 C-160.32943859 239.38234667 -160.3234658 236.87886789 -160.3125 234.375 C-160.31067719 233.50425842 -160.30885437 232.63351685 -160.30697632 231.73638916 C-160.23024634 209.87359399 -157.53378322 189.1636727 -152 168 C-151.77973145 167.1548584 -151.55946289 166.3097168 -151.33251953 165.43896484 C-141.39891877 128.19337245 -121.70481615 93.57485259 -96 65 C-95.505 64.44328613 -95.01 63.88657227 -94.5 63.31298828 C-83.39576214 50.84602331 -71.32629449 40.04241961 -58 30 C-57.14535156 29.35200439 -57.14535156 29.35200439 -56.2734375 28.69091797 C-42.51132112 18.32612769 -27.47371111 10.48401714 -12 3 C-10.56527344 2.29617187 -10.56527344 2.29617187 -9.1015625 1.578125 C-3.37826305 -1.12608768 -3.37826305 -1.12608768 0 0 Z " fill="#73C7EF" transform="translate(163,25)"/>
<path d="M0 0 C13.94070636 4.98453554 25.89480471 15.53055651 37 25 C37.76699219 25.64710937 38.53398437 26.29421875 39.32421875 26.9609375 C41.24468003 28.61164846 43.12583348 30.29686008 45 32 C45.72848145 32.65500488 45.72848145 32.65500488 46.47167969 33.32324219 C53.04906344 39.24483931 59.3686589 45.15280116 65 52 C65.7321875 52.84433594 66.464375 53.68867187 67.21875 54.55859375 C95.15839761 87.14011319 114.25011707 126.81774222 122.8125 168.8125 C123.00739014 169.76463379 123.20228027 170.71676758 123.40307617 171.69775391 C126.39613734 187.28172248 127.38187303 202.78305155 127.3125 218.625 C127.31067719 219.49607391 127.30885437 220.36714783 127.30697632 221.26461792 C127.25752148 235.36214514 126.54753903 249.10617245 124 263 C123.83902832 263.91845703 123.67805664 264.83691406 123.51220703 265.78320312 C116.28829811 305.94841432 98.68079362 348.40543863 71 379 C70.34 379.33 69.68 379.66 69 380 C68.99589111 379.32646484 68.99178223 378.65292969 68.98754883 377.95898438 C68.72998609 353.77693357 64.48667297 333.39728984 46.984375 315.7578125 C34.00378627 303.38919043 18.09973018 298.19111034 1 294 C0.70609375 292.56333984 0.70609375 292.56333984 0.40625 291.09765625 C-4.71763633 267.68648884 -17.32390991 248.06136297 -36 233 C-35.55269531 231.98164063 -35.10539062 230.96328125 -34.64453125 229.9140625 C-34.03326027 228.48462882 -33.42261857 227.05492593 -32.8125 225.625 C-32.37454102 224.635 -32.37454102 224.635 -31.92773438 223.625 C-24.79582104 206.75380716 -23.25273667 191.29104682 -23.25 173.125 C-23.22817917 169.87418072 -23.19951028 166.62350787 -23.16766357 163.37277222 C-23.15029171 161.37145926 -23.13966853 159.37007005 -23.13751221 157.36868286 C-23.10931212 150.53851748 -22.65201535 143.79813954 -22 137 C-16.12682722 137.55934979 -12.16292827 139.61332053 -8.1875 144 C-5.69863287 148.19177622 -5.66703044 152.17194143 -6 157 C-7.5 160.4375 -7.5 160.4375 -9 163 C-3.57172287 159.58794009 -1.15491316 154.87269758 1 149 C1.66895002 144.97139668 1.70258876 141.0759961 1.625 137 C1.64433594 135.98421875 1.66367187 134.9684375 1.68359375 133.921875 C1.6374196 126.71870754 0.20365282 120.94102461 -4 115 C-8.19652752 111.28699572 -12.36893452 109.15988811 -17.66699219 107.42163086 C-18.47819519 107.1545079 -19.28939819 106.88738495 -20.12518311 106.61216736 C-20.74387268 106.41015213 -21.36256226 106.2081369 -22 106 C-22.25579741 98.57676022 -22.45076818 91.15448153 -22.56993389 83.72771454 C-22.62715748 80.27814744 -22.70462458 76.83161114 -22.82983398 73.38378906 C-22.9731373 69.41248988 -23.02575104 65.4423813 -23.07421875 61.46875 C-23.13099289 60.24136108 -23.18776703 59.01397217 -23.2462616 57.74938965 C-23.25232753 49.27590246 -23.25232753 49.27590246 -19.61856079 45.57373047 C-16.68286133 43.49023438 -16.68286133 43.49023438 -13.7591095 41.79528809 C-6.91169093 37.33983281 -3.32811972 29.00093636 -1.48828125 21.2578125 C-0.43345209 14.21999232 -0.226677 7.10515144 0 0 Z " fill="#AFE5FE" transform="translate(382,40)"/>
<path d="M0 0 C0.7433951 -0.00085442 1.4867902 -0.00170885 2.25271243 -0.00258917 C4.73854256 -0.00423357 7.22430489 0.00126037 9.71012878 0.00672913 C11.49409483 0.00701125 13.278061 0.00685277 15.06202698 0.00628662 C19.90249578 0.00599962 24.74293982 0.01188064 29.58340287 0.01886058 C34.64295212 0.0251103 39.70250193 0.0256992 44.76205444 0.02688599 C54.34191256 0.02999452 63.92175927 0.03820148 73.50161237 0.04823548 C84.40841164 0.05941143 95.31521145 0.0649108 106.22201502 0.06993091 C128.65710549 0.08038448 151.09218584 0.09797469 173.52726746 0.12025452 C173.62067497 7.45788066 173.69138591 14.79537494 173.73451614 22.13347912 C173.75523511 25.54229179 173.78325735 28.95069251 173.82902527 32.35926819 C173.88151493 36.29386661 173.90034225 40.22830861 173.91789246 44.16322327 C173.9385376 45.36480576 173.95918274 46.56638824 173.98045349 47.80438232 C173.98314368 58.13528244 172.20172576 68.61515576 165.83976746 77.05775452 C165.23777527 77.89177795 164.63578308 78.72580139 164.01554871 79.58509827 C161.52726746 82.12025452 161.52726746 82.12025452 159.35411072 83.21368408 C156.62790334 84.60903253 154.65790113 85.90833774 152.52726746 88.12025452 C151.20330221 92.53236525 151.33869466 96.81523075 151.42961121 101.39369202 C151.41541893 103.3120134 151.41541893 103.3120134 151.40093994 105.26908875 C151.38386378 108.65409777 151.40532335 112.03434329 151.44572449 115.4188385 C151.47744863 118.8779903 151.4581644 122.33682606 151.44328308 125.79603577 C151.42444418 132.57145795 151.45643599 139.34520835 151.52726746 146.12025452 C152.45530182 146.31547195 152.45530182 146.31547195 153.40208435 146.51463318 C154.21328735 146.68919037 155.02449036 146.86374756 155.86027527 147.04359436 C156.66458984 147.21498932 157.46890442 147.38638428 158.29759216 147.56297302 C164.43665392 149.09736035 169.15958733 153.05301225 172.52726746 158.30775452 C175.95698972 164.34549475 175.81255231 169.88479354 175.90226746 176.68275452 C175.95834167 178.25379944 175.95834167 178.25379944 176.01554871 179.85658264 C176.10677645 188.01132974 174.3920701 194.48498943 169.09196472 200.84169006 C167.71476746 202.24525452 167.71476746 202.24525452 165.52726746 204.12025452 C164.86726746 203.79025452 164.20726746 203.46025452 163.52726746 203.12025452 C164.02226746 202.27462952 164.51726746 201.42900452 165.02726746 200.55775452 C167.28945632 195.37357171 167.0387911 191.79691535 165.40226746 186.43275452 C162.19328498 180.76355215 157.61913989 178.8607895 151.52726746 177.12025452 C151.52726746 181.08025452 151.52726746 185.04025452 151.52726746 189.12025452 C147.27490966 188.87011582 145.05161965 188.55138854 141.71476746 185.80775452 C137.95050412 181.18308814 137.27809511 178.32686582 137.27189636 172.32313538 C137.26646568 171.31000778 137.26646568 171.31000778 137.26092529 170.27641296 C137.25404429 168.8125029 137.25152343 167.34856726 137.25287247 165.88464165 C137.25384116 163.55818405 137.24085204 161.23218422 137.22389221 158.90579224 C137.17774651 152.29217652 137.15305362 145.6786058 137.14640808 139.06483459 C137.14135733 135.01403557 137.11692229 130.96371037 137.08108139 126.91307259 C137.07135883 125.37872238 137.06890972 123.84430632 137.07425308 122.30993462 C137.10787953 112.17137017 136.99620896 100.91538693 129.52726746 93.12025452 C126.67334304 92.51263334 126.67334304 92.51263334 123.34939575 92.60559082 C121.40859634 92.58650414 121.40859634 92.58650414 119.42858887 92.56703186 C117.99134645 92.57321476 116.5541058 92.57982084 115.11686707 92.58680725 C113.60556698 92.57975089 112.09427396 92.57100707 110.58299255 92.56069946 C106.47301044 92.53815133 102.36341249 92.54115953 98.25339198 92.55002093 C94.81943379 92.55512739 91.38554801 92.5478402 87.95159727 92.54054886 C79.84337436 92.52352917 71.73533949 92.52713232 63.62712097 92.5438385 C55.27634817 92.56072286 46.92609951 92.54498109 38.57538408 92.51261562 C31.39896664 92.48586018 24.22271174 92.4786609 17.04624945 92.4871307 C12.7634616 92.49204746 8.48098832 92.48991403 4.19824028 92.46934319 C0.16379385 92.45089503 -3.8699051 92.45705497 -7.90431213 92.48154259 C-9.37882559 92.48652368 -10.85339684 92.48313142 -12.32786369 92.47039413 C-21.02400953 92.40126395 -28.2608605 92.86543391 -35.47273254 98.12025452 C-40.74663996 103.58094975 -41.59071093 108.47962433 -41.63044739 115.81312561 C-41.63552811 116.47706833 -41.64060883 117.14101105 -41.64584351 117.82507324 C-41.65651887 119.26280284 -41.66515009 120.70054876 -41.67196274 122.13830185 C-41.68379151 124.41709197 -41.70325407 126.69569595 -41.7250824 128.97441101 C-41.78656684 135.45199867 -41.84071816 141.92956548 -41.87409973 148.40736389 C-41.89508698 152.37381798 -41.93041972 156.33992906 -41.97485733 160.30618668 C-41.98898242 161.81395548 -41.99773187 163.32178493 -42.00091171 164.82961655 C-42.00584073 166.94297248 -42.02904698 169.0554235 -42.05622864 171.16859436 C-42.06431549 172.36898346 -42.07240234 173.56937256 -42.08073425 174.80613708 C-42.65841436 179.6900862 -44.32286357 182.97038554 -47.78523254 186.43275452 C-50.76706976 188.30507091 -53.02281485 188.63964529 -56.47273254 189.12025452 C-56.54297816 171.20417776 -56.59579663 153.28813701 -56.62816906 135.37195206 C-56.64360319 127.05216605 -56.66462623 118.73246588 -56.6990509 110.41273499 C-56.72905949 103.15678844 -56.74833262 95.9009041 -56.75499803 88.64489722 C-56.75889099 84.80693592 -56.7679669 80.96915248 -56.78992271 77.13124847 C-56.81046953 73.50988266 -56.81653014 69.88876591 -56.81205559 66.26734734 C-56.81325879 64.32300493 -56.82930482 62.37868889 -56.84599304 60.43441772 C-56.80893284 49.77587635 -55.08958447 39.86891914 -49.84773254 30.49525452 C-49.50073303 29.86554749 -49.15373352 29.23584045 -48.79621887 28.58705139 C-40.46265346 14.00843082 -28.24649993 6.18292256 -12.47273254 1.12025452 C-8.30557104 0.08352581 -4.2691596 -0.0180302 0 0 Z " fill="#373C41" transform="translate(208.4727325439453,-0.1202545166015625)"/>
<path d="M0 0 C19.01906432 13.48624561 31.68935102 33.3786779 37 56 C37.125 58.9609375 37.125 58.9609375 37 61 C38.32 61.33 39.64 61.66 41 62 C40.01 62 39.02 62 38 62 C38.01160156 63.12277344 38.02320313 64.24554688 38.03515625 65.40234375 C38.17665933 83.75262699 36.23668054 99.09214971 22.97265625 113.1484375 C8.78581674 126.53999306 -13.46174438 135.13946779 -33 135 C-32.99000725 136.20816376 -32.99000725 136.20816376 -32.97981262 137.44073486 C-32.91968984 145.03300114 -32.8740198 152.6251519 -32.84456348 160.21759415 C-32.82891055 164.12091481 -32.80767939 168.02403869 -32.77368164 171.92724609 C-32.74107443 175.69440392 -32.72314418 179.46137252 -32.71536827 183.22866058 C-32.70982716 184.66558562 -32.69900664 186.10250035 -32.68280983 187.53934479 C-32.66102011 189.55249422 -32.65977446 191.56583424 -32.65942383 193.57910156 C-32.64943108 195.29785492 -32.64943108 195.29785492 -32.63923645 197.05133057 C-33.03950122 200.32285977 -33.65506251 201.71160455 -36 204 C-39 204.4375 -39 204.4375 -42 204 C-44.03667615 202.45493534 -44.86073078 201.27853844 -46 199 C-46.0913666 197.02893455 -46.11751968 195.05472084 -46.11352539 193.08154297 C-46.11344986 191.84040741 -46.11337433 190.59927185 -46.11329651 189.32052612 C-46.1081895 187.96107951 -46.1029735 186.60163331 -46.09765625 185.2421875 C-46.09579142 183.85499116 -46.09436782 182.46779416 -46.09336853 181.08059692 C-46.08954848 177.42765488 -46.07972255 173.77475252 -46.06866455 170.12182617 C-46.05843944 166.39502499 -46.05386855 162.66821741 -46.04882812 158.94140625 C-46.03809983 151.62758606 -46.02102954 144.31379859 -46 137 C-46.86170807 137.07064667 -47.72341614 137.14129333 -48.61123657 137.21408081 C-56.70240373 137.84038671 -64.72237778 138.1480111 -72.8359375 138.1328125 C-74.58047714 138.13424759 -74.58047714 138.13424759 -76.36026001 138.13571167 C-78.79876765 138.13638638 -81.23727716 138.13458211 -83.67578125 138.13037109 C-87.35941707 138.12502263 -91.04293044 138.13033549 -94.7265625 138.13671875 C-106.86288192 138.13979046 -118.90016267 137.96826592 -131 137 C-130.99000725 138.17057953 -130.99000725 138.17057953 -130.97981262 139.36480713 C-130.91968481 146.72161438 -130.87401727 154.07830238 -130.84456348 161.43529129 C-130.82891188 165.21754698 -130.80768321 168.99959951 -130.77368164 172.78173828 C-130.74106959 176.43218735 -130.72314318 180.08244109 -130.71536827 183.7330246 C-130.70982802 185.12529322 -130.69900916 186.51755123 -130.68280983 187.90973663 C-130.66101377 189.86061668 -130.65977441 191.81169354 -130.65942383 193.76269531 C-130.64943108 195.42815399 -130.64943108 195.42815399 -130.63923645 197.1272583 C-131.04556822 200.36285743 -131.66660589 201.74364806 -134 204 C-137.5 204.5 -137.5 204.5 -141 204 C-143.37303752 201.72135495 -143.95925843 200.33299768 -144.36076355 197.05133057 C-144.35410172 195.905495 -144.34743988 194.75965942 -144.34057617 193.57910156 C-144.34034958 192.27805481 -144.34012299 190.97700806 -144.33988953 189.63653564 C-144.32457067 188.22122858 -144.3089227 186.80592505 -144.29296875 185.390625 C-144.28737107 183.93903034 -144.28310178 182.48743 -144.28010559 181.03582764 C-144.2686702 177.22166196 -144.23921465 173.40784089 -144.20599365 169.59381104 C-144.17526438 165.69930686 -144.16159417 161.80474681 -144.14648438 157.91015625 C-144.11434336 150.27328067 -144.06316324 142.63668869 -144 135 C-144.66418442 134.94050171 -145.32836884 134.88100342 -146.01268005 134.81970215 C-165.25794869 133.0124513 -187.93973655 126.1499056 -201 111 C-207.95930487 101.86504071 -213.15955462 90.99626832 -213.09765625 79.359375 C-213.09443359 78.28945313 -213.09121094 77.21953125 -213.08789062 76.1171875 C-213.07951172 75.00601563 -213.07113281 73.89484375 -213.0625 72.75 C-213.05798828 71.62335938 -213.05347656 70.49671875 -213.04882812 69.3359375 C-213.03705397 66.55723783 -213.0206084 63.77864591 -213 61 C-213.66 60.67 -214.32 60.34 -215 60 C-214.01 59.505 -214.01 59.505 -213 59 C-212.38806623 56.64617556 -211.86786792 54.31632799 -211.375 51.9375 C-207.14648306 33.60083095 -196.00830048 16.63067518 -181.95703125 4.19140625 C-181.31121094 3.79824219 -180.66539062 3.40507812 -180 3 C-176.17330311 4.27556563 -175.45847907 5.83723148 -173.1875 9.125 C-161.6069937 25.40484219 -145.19314331 38.60228556 -126 45 C-125.9906543 45.97235596 -125.98130859 46.94471191 -125.97167969 47.9465332 C-125.93135858 51.60550278 -125.86549142 55.26366813 -125.79248047 58.92211914 C-125.76451204 60.49590609 -125.74317938 62.06982721 -125.72900391 63.64379883 C-125.60731314 76.40104744 -124.4983813 87.9010202 -115.390625 97.73828125 C-108.65816502 104.23427053 -100.47745374 108.18938426 -91.0625 108.5625 C-80.42886693 108.03360202 -70.4292672 104.84950858 -63 97 C-54.43776586 85.80323227 -53.52226412 73.96590435 -53.3125 60.375 C-53.27925644 58.87887768 -53.24476053 57.38278265 -53.20898438 55.88671875 C-53.12489603 52.25801284 -53.05771315 48.62923255 -53 45 C-51.99582031 44.52691406 -50.99164063 44.05382812 -49.95703125 43.56640625 C-28.61785788 33.32570154 -12.90217594 19.78935144 0 0 Z " fill="#FE3C3D" transform="translate(346,273)"/>
<path d="M0 0 C0.0093457 0.65895264 0.01869141 1.31790527 0.02832031 1.99682617 C0.37322793 21.36068376 1.90458599 36.75025725 15 52 C30.22510133 65.36454678 49.59483088 70.28208136 69 74 C69.32428735 79.76118549 69.55851133 85.51694468 69.71411133 91.28515625 C69.77902207 93.2411763 69.86739828 95.19657701 69.98071289 97.15039062 C70.94923596 114.29456373 70.94923596 114.29456373 66.23730469 119.79760742 C63.57806747 122.39858607 60.67024452 124.53347412 57.63983154 126.67704773 C47.24054094 135.06679067 40.8916168 150.72643934 37 163 C31.36235994 162.41710991 26.77229697 160.34513711 21.6875 158 C20.80376709 157.59483154 19.92003418 157.18966309 19.00952148 156.7722168 C-9.14831028 143.72556101 -33.73055552 126.55687361 -56 105 C-56.50611816 104.51047852 -57.01223633 104.02095703 -57.53369141 103.51660156 C-60.40611504 100.72399485 -63.24964999 97.9129794 -66 95 C-66.52295654 94.54278564 -67.04591309 94.08557129 -67.5847168 93.61450195 C-71.34743687 89.98542888 -72.42871305 87.20280459 -72.76171875 81.97265625 C-72.77604052 79.6691825 -72.74955404 77.36518229 -72.6875 75.0625 C-72.65970459 73.25749023 -72.65970459 73.25749023 -72.63134766 71.41601562 C-72.05972916 52.85463959 -65.17126553 37.94774216 -53 24 C-52.48050781 23.38511719 -51.96101563 22.77023437 -51.42578125 22.13671875 C-38.89842507 8.41027054 -18.39650371 -0.37503602 0 0 Z " fill="#DB1428" transform="translate(133,334)"/>
<path d="M0 0 C1.52206972 -0.00678734 3.04413121 -0.01569672 4.56617737 -0.02655029 C8.67130244 -0.04920635 12.77579434 -0.04056778 16.88092947 -0.02465487 C21.18586444 -0.0119382 25.49074757 -0.02375063 29.79568481 -0.03158569 C37.01639488 -0.04065968 44.23684846 -0.02874756 51.45751953 -0.00488281 C59.80459571 0.02238618 68.1510623 0.01346372 76.498124 -0.01401484 C83.67545188 -0.03669555 90.85259623 -0.039913 98.02994835 -0.02682149 C102.31242447 -0.01902915 106.59461372 -0.01798052 110.87707138 -0.03450394 C114.89766764 -0.0489367 118.9174754 -0.03895001 122.93798637 -0.01003265 C124.41340385 -0.00341795 125.88888764 -0.00532622 127.36427879 -0.01634598 C129.3766888 -0.02999259 131.38924376 -0.0098505 133.40158081 0.01205444 C134.52792875 0.01393957 135.6542767 0.0158247 136.81475639 0.01776695 C139.69970703 0.64697266 139.69970703 0.64697266 142.03083992 2.99915504 C143.69970703 5.64697266 143.69970703 5.64697266 144.69970703 8.64697266 C144.08016962 8.64936101 143.46063221 8.65174936 142.82232094 8.65421009 C127.71388028 8.71347089 112.60561637 8.78909128 97.49735451 8.88268757 C90.19095939 8.92756074 82.8846121 8.96699468 75.578125 8.9934082 C69.20619635 9.01645726 62.83442011 9.04993166 56.46261251 9.09567422 C53.09202246 9.11951392 49.72158248 9.13830299 46.35091019 9.14458656 C42.57844032 9.15424619 38.80651476 9.18232963 35.03417969 9.21459961 C33.37692368 9.21244698 33.37692368 9.21244698 31.68618774 9.21025085 C19.81504524 9.35333067 9.26444346 12.53497668 0.43408203 20.75634766 C-5.88605655 27.54464465 -10.39560081 34.70033545 -10.44746399 44.15838623 C-10.45461929 45.05790512 -10.4617746 45.95742401 -10.46914673 46.88420105 C-10.47183563 47.86391373 -10.47452454 48.8436264 -10.47729492 49.85302734 C-10.48386612 50.89104996 -10.49043732 51.92907257 -10.49720764 52.99855042 C-10.51693577 56.43865028 -10.52860713 59.87870631 -10.53857422 63.31884766 C-10.54264975 64.49775826 -10.54672527 65.67666885 -10.5509243 66.89130402 C-10.57179085 73.14075037 -10.58608561 79.39017478 -10.59545898 85.63964844 C-10.60647688 92.06146155 -10.64082178 98.48292372 -10.68063068 104.90461349 C-10.7069281 109.86869906 -10.71516282 114.83270303 -10.71874046 119.79685211 C-10.72357877 122.1616577 -10.73511292 124.52646033 -10.75377846 126.8911972 C-10.98252571 157.81295145 -2.29683582 185.20731405 19.69970703 207.64697266 C30.86723373 218.57697137 49.79698384 232.47227161 66.19970703 233.20947266 C75.94996541 232.43388392 85.5057263 229.86565577 94.69970703 226.64697266 C94.7999338 230.98447901 94.87180153 235.32134003 94.91943359 239.65966797 C94.9393268 241.12983975 94.96645175 242.5999348 95.00146484 244.06982422 C95.30764142 257.2714377 93.5979962 269.27228573 84.69970703 279.64697266 C77.09165216 287.40903674 67.38432971 290.67492991 56.63720703 291.20947266 C46.4231875 290.77884206 38.17805743 286.24243858 30.89892578 279.25634766 C24.20284276 271.31143921 21.52943601 262.9917163 21.60205078 252.81884766 C21.60346573 252.06984192 21.60488068 251.32083618 21.6063385 250.5491333 C21.61192044 248.16503853 21.62446958 245.78103887 21.63720703 243.39697266 C21.64222437 241.77718235 21.64678687 240.15739057 21.65087891 238.53759766 C21.66188395 234.57401954 21.67913612 230.6105122 21.69970703 226.64697266 C20.93924072 226.50904297 20.17877441 226.37111328 19.39526367 226.22900391 C8.69939344 223.91952518 -1.02115229 216.39114857 -9.30029297 209.64697266 C-10.02861328 209.07205078 -10.75693359 208.49712891 -11.50732422 207.90478516 C-30.30528523 192.40666346 -43.49660651 166.92110606 -46.13378906 142.76687622 C-46.77097721 134.65428919 -46.49636567 126.46425135 -46.42529297 118.33447266 C-46.41524006 116.32210733 -46.40611831 114.30973713 -46.39794922 112.29736328 C-46.37612583 107.41377725 -46.34172412 102.53043008 -46.30029297 97.64697266 C-45.67380859 97.38215088 -45.04732422 97.1173291 -44.40185547 96.84448242 C-43.58458984 96.49184326 -42.76732422 96.1392041 -41.92529297 95.77587891 C-41.11318359 95.42855713 -40.30107422 95.08123535 -39.46435547 94.72338867 C-36.88684717 93.44132255 -35.62081314 92.20548049 -34.30029297 89.64697266 C-33.17074712 86.2583351 -33.16195191 83.65662314 -33.14257812 80.08349609 C-33.13749741 79.42130569 -33.13241669 78.7591153 -33.12718201 78.07685852 C-33.11648913 76.6396593 -33.10786471 75.20244354 -33.10106277 73.76522064 C-33.08925123 71.48623539 -33.06979125 69.20743772 -33.04794312 66.92852783 C-32.98641344 60.44916072 -32.93236314 53.96981219 -32.89892578 47.49023438 C-32.87791382 43.52492924 -32.84255652 39.55996556 -32.79816818 35.59485626 C-32.78405706 34.08791387 -32.77529683 32.58091105 -32.7721138 31.07390594 C-32.76717346 28.9582529 -32.74393684 26.8434964 -32.71679688 24.72802734 C-32.70871002 23.52684265 -32.70062317 22.32565796 -32.69229126 21.08807373 C-32.0123882 15.11964171 -29.63747774 9.87294756 -25.30029297 5.64697266 C-17.27065518 0.10452545 -9.47735059 -0.07142691 0 0 Z " fill="#FE955A" transform="translate(198.30029296875,91.35302734375)"/>
<path d="M0 0 C-0.55429688 1.05058594 -1.10859375 2.10117187 -1.6796875 3.18359375 C-2.41200293 4.60128132 -3.14374297 6.01926621 -3.875 7.4375 C-4.23980469 8.12521484 -4.60460937 8.81292969 -4.98046875 9.52148438 C-5.33496094 10.21435547 -5.68945312 10.90722656 -6.0546875 11.62109375 C-6.37937012 12.2442749 -6.70405273 12.86745605 -7.03857422 13.50952148 C-10.67563715 22.93097375 -10.29082747 32.53765973 -10.2746582 42.45898438 C-10.2790108 44.22581191 -10.28419577 45.99263757 -10.29014587 47.75946045 C-10.30349408 52.5409296 -10.30411877 57.32231949 -10.30158257 62.10380363 C-10.30050915 66.10900835 -10.30540615 70.11419728 -10.310188 74.11939859 C-10.32127063 83.58091326 -10.32172882 93.04238824 -10.31567383 102.50390625 C-10.30964646 112.22690572 -10.32191642 121.94976003 -10.3432439 131.67273474 C-10.36093469 140.04934272 -10.36684918 148.42590482 -10.36360615 156.80253077 C-10.36180365 161.79240014 -10.36432449 166.78216616 -10.37832069 171.77201843 C-10.39101521 176.47367016 -10.38884661 181.17509833 -10.37590981 185.87674713 C-10.37356882 187.58860097 -10.37618804 189.30047111 -10.38453293 191.01230621 C-10.45291157 206.14812869 -9.10115143 220.71276439 -3 234.75 C-2.48566406 236.00296875 -2.48566406 236.00296875 -1.9609375 237.28125 C-0.54135338 240.68391728 0.83203782 243.74665704 2.875 246.828125 C4 249 4 249 3.4453125 251.109375 C1.79062016 253.27389146 0.09524928 254.67433922 -2.125 256.25 C-2.84945312 256.77078125 -3.57390625 257.2915625 -4.3203125 257.828125 C-4.87460938 258.21484375 -5.42890625 258.6015625 -6 259 C-35.515311 225.52171137 -57.67050256 184.26970907 -65.625 140.0625 C-65.83664795 138.88937256 -66.0482959 137.71624512 -66.26635742 136.50756836 C-71.14981613 108.51071669 -71.25050066 80.20764583 -68 52 C-67.91411621 51.18450684 -67.82823242 50.36901367 -67.73974609 49.52880859 C-67.49427982 47.32331026 -67.19753017 45.13289535 -66.875 42.9375 C-66.70742187 41.75027344 -66.53984375 40.56304687 -66.3671875 39.33984375 C-63.3342659 31.93084955 -55.24205114 27.53041692 -48.75 23.25 C-47.98059082 22.74122314 -47.21118164 22.23244629 -46.41845703 21.70825195 C-34.78208428 14.13372032 -22.60837929 7.43160943 -9.9375 1.75 C-8.9462915 1.29983521 -8.9462915 1.29983521 -7.93505859 0.84057617 C-3.36961483 -1.12320494 -3.36961483 -1.12320494 0 0 Z " fill="#AEE5FE" transform="translate(163,25)"/>
<path d="M0 0 C7.77005196 2.77501856 15.24784494 5.75126709 19.5 13.25 C23.9549786 25.53959614 22.91027901 41.48454819 17.5 53.25 C6.12516269 75.12666227 -11.99079597 87.7824406 -34.875 95.5625 C-60.57407267 102.90959685 -88.56472932 100.05618745 -112.25 87.9375 C-118.1985416 84.591896 -123.41379913 80.79036468 -128.5 76.25 C-129.34433594 75.51136719 -130.18867188 74.77273438 -131.05859375 74.01171875 C-142.31991077 63.53886533 -149.99775436 49.36642224 -150.7734375 33.859375 C-151.29432009 16.18373075 -151.29432009 16.18373075 -145.5 9.25 C-143.00611398 6.90426562 -140.44844677 4.98507007 -137.5 3.25 C-136.86191406 2.8684375 -136.22382813 2.486875 -135.56640625 2.09375 C-132.96316773 1.03080195 -131.29519721 0.90113216 -128.5 1.25 C-126.02734375 2.5703125 -126.02734375 2.5703125 -123.4375 4.375 C-116.89563622 8.74216008 -109.99032476 12.75322508 -102.5 15.25 C-102.48598145 16.70853394 -102.48598145 16.70853394 -102.47167969 18.1965332 C-102.43135858 21.85550278 -102.36549142 25.51366813 -102.29248047 29.17211914 C-102.26451204 30.74590609 -102.24317938 32.31982721 -102.22900391 33.89379883 C-102.10731314 46.65104744 -100.9983813 58.1510202 -91.890625 67.98828125 C-85.15816502 74.48427053 -76.97745374 78.43938426 -67.5625 78.8125 C-56.92886693 78.28360202 -46.9292672 75.09950858 -39.5 67.25 C-30.93776586 56.05323227 -30.02226412 44.21590435 -29.8125 30.625 C-29.77925644 29.12887768 -29.74476053 27.63278265 -29.70898438 26.13671875 C-29.62489603 22.50801284 -29.55771315 18.87923255 -29.5 15.25 C-28.46101563 14.75371094 -27.42203125 14.25742187 -26.3515625 13.74609375 C-24.94166167 13.06204894 -23.53288217 12.37568998 -22.125 11.6875 C-21.39418213 11.33051025 -20.66336426 10.97352051 -19.91040039 10.60571289 C-15.60387179 8.45221084 -11.76862353 6.1336043 -7.9375 3.1875 C-4.86515304 0.95353058 -3.88531386 0.27752242 0 0 Z " fill="#DC1428" transform="translate(322.5,302.75)"/>
<path d="M0 0 C0.69323364 -0.00014603 1.38646729 -0.00029205 2.10070801 -0.0004425 C4.37861321 0.00025088 6.65643535 0.00801624 8.93432617 0.01586914 C10.51901708 0.01773536 12.10370857 0.0191583 13.68840027 0.02015686 C17.84929002 0.02396596 22.0101446 0.03378247 26.17102051 0.04486084 C30.4208936 0.05510957 34.6707724 0.05966189 38.9206543 0.06469727 C47.25205061 0.07540623 55.58341838 0.09246328 63.91479492 0.11352539 C63.91479492 0.44352539 63.91479492 0.77352539 63.91479492 1.11352539 C63.16456055 1.28368164 62.41432617 1.45383789 61.64135742 1.62915039 C44.99139774 5.57145822 31.58211985 12.36382606 21.91479492 27.11352539 C13.29023597 41.76938183 12.4206837 55.19880719 12.22729492 71.80102539 C12.19406843 73.77435463 12.15957398 75.74766294 12.1237793 77.72094727 C12.03948786 82.51835686 11.97239272 87.31572411 11.91479492 92.11352539 C10.84632324 92.11763428 9.77785156 92.12174316 8.67700195 92.12597656 C4.66952888 92.14793618 0.66301438 92.20239627 -3.34399414 92.26611328 C-5.07013685 92.28914785 -6.79641721 92.30365449 -8.52270508 92.30908203 C-22.61500531 92.15169993 -22.61500531 92.15169993 -35.08520508 98.11352539 C-40.3436903 103.60481015 -41.20306822 108.45162675 -41.24291992 115.80639648 C-41.24800064 116.4703392 -41.25308136 117.13428192 -41.25831604 117.81834412 C-41.2689914 119.25607371 -41.27762262 120.69381963 -41.28443527 122.13157272 C-41.29626404 124.41036284 -41.31572661 126.68896683 -41.33755493 128.96768188 C-41.39903938 135.44526955 -41.4531907 141.92283635 -41.48657227 148.40063477 C-41.50755952 152.36708885 -41.54289226 156.33319993 -41.58732986 160.29945755 C-41.60145495 161.80722636 -41.6102044 163.31505581 -41.61338425 164.82288742 C-41.61831326 166.93624335 -41.64151951 169.04869438 -41.66870117 171.16186523 C-41.67678802 172.36225433 -41.68487488 173.56264343 -41.69320679 174.79940796 C-42.27088689 179.68335707 -43.9353361 182.96365642 -47.39770508 186.42602539 C-50.3795423 188.29834178 -52.63528738 188.63291617 -56.08520508 189.11352539 C-56.15545069 171.19744863 -56.20826917 153.28140788 -56.24064159 135.36522293 C-56.25607573 127.04543693 -56.27709876 118.72573675 -56.31152344 110.40600586 C-56.34153203 103.15005932 -56.36080515 95.89417498 -56.36747056 88.6381681 C-56.37136352 84.80020679 -56.38043944 80.96242335 -56.40239525 77.12451935 C-56.42294206 73.50315353 -56.42900267 69.88203679 -56.42452812 66.26061821 C-56.42573132 64.3162758 -56.44177736 62.37195976 -56.45846558 60.4276886 C-56.42140537 49.76914723 -54.70205701 39.86219002 -49.46020508 30.48852539 C-49.11320557 29.85881836 -48.76620605 29.22911133 -48.40869141 28.58032227 C-40.075126 14.00170169 -27.85897246 6.17619344 -12.08520508 1.11352539 C-8.00930095 0.10969355 -4.1922282 -0.00744623 0 0 Z " fill="#262A2D" transform="translate(208.085205078125,-0.113525390625)"/>
<path d="M0 0 C-0.56332544 7.39268184 -2.23740581 14.05640939 -4.4375 21.125 C-4.78949463 22.2586499 -5.14148926 23.3922998 -5.50415039 24.56030273 C-9.18794098 36.08348214 -13.79383528 47.08856371 -19 58 C-19.36174316 58.76070801 -19.72348633 59.52141602 -20.09619141 60.30517578 C-39.70844785 100.85422393 -39.70844785 100.85422393 -52 107 C-52.00410889 106.32646484 -52.00821777 105.65292969 -52.01245117 104.95898438 C-52.28020019 79.82056411 -56.71073815 60.37393435 -75 42 C-71.22659625 38.65377404 -66.83444242 37.29733448 -62.1875 35.5625 C-40.68574259 27.20884356 -20.30822453 15.74357564 -2.43359375 1.109375 C-1 0 -1 0 0 0 Z " fill="#73C7EF" transform="translate(503,313)"/>
<path d="M0 0 C2.64 0 5.28 0 8 0 C10.51995931 8.39986438 11.1821626 16.1109857 11.1875 24.875 C11.19974609 25.92558594 11.21199219 26.97617187 11.22460938 28.05859375 C11.23594004 34.09406311 10.76076394 39.22545159 9 45 C8.73960937 45.92425781 8.47921875 46.84851563 8.2109375 47.80078125 C2.51313372 64.92081783 -10.42511762 75.15124038 -26 83 C-39.88123395 89.16088053 -55.81743716 93 -71 93 C-71 86.4 -71 79.8 -71 73 C-68.793125 72.649375 -66.58625 72.29875 -64.3125 71.9375 C-48.86702318 69.16448296 -33.70345577 64.40929317 -21 55 C-19.74316406 54.07767578 -19.74316406 54.07767578 -18.4609375 53.13671875 C-9.27386648 45.71639215 -3.14572704 34.55260097 -1.57714844 22.84350586 C-1.26435847 19.37625393 -1.02211359 15.91247023 -0.8125 12.4375 C-0.73064453 11.23802734 -0.64878906 10.03855469 -0.56445312 8.80273438 C-0.36575525 5.86901869 -0.1778715 2.93503945 0 0 Z " fill="#DC1428" transform="translate(384,335)"/>
<path d="M0 0 C28.05 0 56.1 0 85 0 C85 6.6 85 13.2 85 20 C74.88298797 21.12411245 74.88298797 21.12411245 71.25317383 21.15771484 C70.43814896 21.16797699 69.62312408 21.17823914 68.78340149 21.18881226 C67.50809822 21.19976425 67.50809822 21.19976425 66.20703125 21.2109375 C64.34048616 21.23901518 62.47394982 21.2676797 60.60742188 21.296875 C57.71606792 21.33792524 54.82487573 21.37488666 51.93334961 21.40136719 C40.56735671 21.51402678 30.01579944 21.94043034 19 25 C17.91489136 25.29100586 17.91489136 25.29100586 16.80786133 25.58789062 C15.19446801 26.04282179 13.59580428 26.54926607 12 27.0625 C10.989375 27.38347656 9.97875 27.70445312 8.9375 28.03515625 C5.95542921 29.01463961 2.97773748 30.00742084 0 31 C0 20.77 0 10.54 0 0 Z " fill="#DC1428" transform="translate(215,410)"/>
<path d="M0 0 C0.90492188 0.02320313 1.80984375 0.04640625 2.7421875 0.0703125 C4.10730469 0.09738281 4.10730469 0.09738281 5.5 0.125 C6.19867188 0.14820313 6.89734375 0.17140625 7.6171875 0.1953125 C7.9265625 1.3296875 8.2359375 2.4640625 8.5546875 3.6328125 C9.24643281 6.98306349 9.24643281 6.98306349 10.6171875 8.1953125 C13.70800215 8.2964817 16.77601305 8.33499808 19.8671875 8.328125 C20.79563477 8.32908173 21.72408203 8.33003845 22.68066406 8.33102417 C24.64778715 8.33170605 26.61491246 8.32985122 28.58203125 8.32568359 C31.60421776 8.32033545 34.62625565 8.32562832 37.6484375 8.33203125 C39.55468783 8.33137047 41.46093807 8.33008931 43.3671875 8.328125 C44.73278809 8.33116135 44.73278809 8.33116135 46.12597656 8.33425903 C50.19382428 8.73422582 50.19382428 8.73422582 53.6171875 7.1953125 C53.98479481 4.86713286 54.31960331 2.533474 54.6171875 0.1953125 C56.40852728 0.14139257 58.20032649 0.10255679 59.9921875 0.0703125 C61.48878906 0.03550781 61.48878906 0.03550781 63.015625 0 C65.6171875 0.1953125 65.6171875 0.1953125 67.6171875 2.1953125 C68.40360503 10.32826341 64.79118514 16.5184565 60.6171875 23.1953125 C54.33642748 30.73917739 46.21396447 34.63203661 36.6171875 36.1953125 C25.40558071 37.09165328 17.53255809 35.75854247 8.85131836 28.38452148 C3.78382711 23.85214993 0.05380828 19.61913092 -2.3828125 13.1953125 C-2.7953125 12.3290625 -3.2078125 11.4628125 -3.6328125 10.5703125 C-4.5580094 7.64052231 -4.65425885 5.24908395 -4.3828125 2.1953125 C-2.3828125 0.1953125 -2.3828125 0.1953125 0 0 Z " fill="#FC3F3F" transform="translate(224.3828125,239.8046875)"/>
<path d="M0 0 C0 33 0 66 0 100 C-6.23991521 98.96001413 -7.18318251 98.55897645 -11 94 C-13.29801015 90.43824952 -13.25104944 87.38857635 -13.25537109 83.20288086 C-13.25899155 82.52746246 -13.262612 81.85204407 -13.26634216 81.15615845 C-13.27322317 79.69224839 -13.27574403 78.22831274 -13.27439499 76.76438713 C-13.27342629 74.43792954 -13.28641542 72.1119297 -13.30337524 69.78553772 C-13.34952095 63.171922 -13.37421383 56.55835128 -13.38085938 49.94458008 C-13.38591013 45.89378105 -13.41034516 41.84345585 -13.44618607 37.79281807 C-13.45590862 36.25846786 -13.45835773 34.72405181 -13.45301437 33.1896801 C-13.42280193 24.08045493 -14.17449691 16.4259118 -18 8 C-18.67236342 6.33562334 -19.34061154 4.66955955 -20 3 C-18.86820312 2.86722656 -17.73640625 2.73445313 -16.5703125 2.59765625 C-15.08851821 2.4194658 -13.60674864 2.24106971 -12.125 2.0625 C-11.00544922 1.93198242 -11.00544922 1.93198242 -9.86328125 1.79882812 C-6.51424787 1.39151325 -3.23058195 0 0 0 Z " fill="#262A2D" transform="translate(359,89)"/>
<path d="M0 0 C3.4375 0.4375 3.4375 0.4375 5.0246582 1.55395508 C7.01466285 4.20695073 7.62203606 6.81332629 8.48046875 10.01171875 C8.65379227 10.65438187 8.82711578 11.29704498 9.00569153 11.95918274 C9.36943206 13.31869886 9.72801872 14.67960299 10.08178711 16.04174805 C10.61963358 18.10441947 11.1786157 20.16048817 11.74023438 22.21679688 C14.29402234 31.75357729 16.16926095 39.30148836 11.625 48.453125 C9.48369288 52.03136189 7.39869244 53.87610405 3.36328125 55.03125 C-1.42278263 55.87632749 -4.98857904 55.62609614 -9.0546875 52.85546875 C-12.43495682 49.67661444 -14.24206839 45.94935546 -14.8293457 41.34570312 C-14.94799885 33.47191425 -13.18845931 26.17353492 -11.3125 18.5625 C-11.00842517 17.24495058 -10.7050354 15.92724287 -10.40234375 14.609375 C-10.09941406 13.35898438 -9.79648438 12.10859375 -9.484375 10.8203125 C-9.07590332 9.12479248 -9.07590332 9.12479248 -8.65917969 7.39501953 C-6.88914232 2.62159285 -5.09161897 0.62528654 0 0 Z " fill="#FF965A" transform="translate(256.5625,170.5625)"/>
<path d="M0 0 C3.4375 0.875 3.4375 0.875 5.4375 3.875 C5.69819641 6.98020935 5.69819641 6.98020935 5.7121582 10.85327148 C5.71726913 11.55929504 5.72238007 12.2653186 5.72764587 12.99273682 C5.74154919 15.32727529 5.74058458 17.66151879 5.73828125 19.99609375 C5.74216782 21.61890269 5.74650241 23.24171061 5.75126648 24.86451721 C5.7587303 28.26656389 5.75843629 31.6685068 5.75317383 35.07055664 C5.74737937 39.42982172 5.76430858 43.78866189 5.7875185 48.14785671 C5.80225198 51.4996031 5.80312807 54.85124707 5.80000877 58.2030201 C5.8005222 59.81017969 5.80576389 61.41734498 5.81582069 63.02447319 C5.82816047 65.2723741 5.82140892 67.5194463 5.80981445 69.76733398 C5.81044388 71.04624008 5.8110733 72.32514618 5.8117218 73.64280701 C5.41323846 77.08454945 4.95802718 78.5269272 2.4375 80.875 C-1.125 81.3125 -1.125 81.3125 -4.5625 80.875 C-7.05651438 77.13397843 -6.82150754 75.16976249 -6.8371582 70.69726562 C-6.84226913 69.97012863 -6.84738007 69.24299164 -6.85264587 68.49382019 C-6.86654954 66.08954649 -6.86558476 63.68555913 -6.86328125 61.28125 C-6.86716737 59.61120497 -6.87150186 57.94116092 -6.87626648 56.27111816 C-6.88373006 52.77071936 -6.88343614 49.27042141 -6.87817383 45.77001953 C-6.87237476 41.28062457 -6.88931987 36.79164158 -6.9125185 32.30231476 C-6.92723671 28.85367411 -6.92813024 25.40513316 -6.92500877 21.95646667 C-6.92552281 20.30103234 -6.93077601 18.64559254 -6.94082069 16.9901886 C-6.95313297 14.6774298 -6.94642583 12.36547985 -6.93481445 10.05273438 C-6.93544388 8.73607788 -6.9360733 7.41942139 -6.9367218 6.06286621 C-6.5625 2.875 -6.5625 2.875 -5.2618866 0.9185791 C-3.5625 -0.125 -3.5625 -0.125 0 0 Z " fill="#FEF6F7" transform="translate(209.5625,396.125)"/>
<path d="M0 0 C3.4375 0.875 3.4375 0.875 5.4375 3.875 C5.69819641 6.98020935 5.69819641 6.98020935 5.7121582 10.85327148 C5.71726913 11.55929504 5.72238007 12.2653186 5.72764587 12.99273682 C5.74154919 15.32727529 5.74058458 17.66151879 5.73828125 19.99609375 C5.74216782 21.61890269 5.74650241 23.24171061 5.75126648 24.86451721 C5.7587303 28.26656389 5.75843629 31.6685068 5.75317383 35.07055664 C5.74737937 39.42982172 5.76430858 43.78866189 5.7875185 48.14785671 C5.80225198 51.4996031 5.80312807 54.85124707 5.80000877 58.2030201 C5.8005222 59.81017969 5.80576389 61.41734498 5.81582069 63.02447319 C5.82816047 65.2723741 5.82140892 67.5194463 5.80981445 69.76733398 C5.81044388 71.04624008 5.8110733 72.32514618 5.8117218 73.64280701 C5.41412916 77.07685642 4.92440729 78.50930627 2.4375 80.875 C-0.6232025 81.32135245 -2.58009158 81.51216579 -5.22573853 79.79626465 C-7.28532128 76.83612283 -6.94420883 74.26904263 -6.95068359 70.69726562 C-6.95856903 69.60656013 -6.95856903 69.60656013 -6.96661377 68.49382019 C-6.97982141 66.08941184 -6.97107339 63.68566513 -6.9609375 61.28125 C-6.96295803 59.61120476 -6.96586928 57.94116038 -6.96963501 56.27111816 C-6.97405938 52.77066652 -6.96762378 49.27044449 -6.95361328 45.77001953 C-6.93652119 41.28059869 -6.94636179 36.79171586 -6.96433067 32.30231476 C-6.97516553 28.85365741 -6.97172357 25.40512785 -6.9639473 21.95646667 C-6.96194446 20.30104 -6.96440751 18.64560177 -6.97138596 16.9901886 C-6.97899572 14.67739074 -6.96740388 12.36546704 -6.95068359 10.05273438 C-6.94829681 8.73607788 -6.94591003 7.41942139 -6.94345093 6.06286621 C-6.5625 2.875 -6.5625 2.875 -5.26089478 0.9185791 C-3.5625 -0.125 -3.5625 -0.125 0 0 Z " fill="#FEFAFA" transform="translate(307.5625,396.125)"/>
<path d="M0 0 C0 10.56 0 21.12 0 32 C-0.33 32 -0.66 32 -1 32 C-1.33 22.43 -1.66 12.86 -2 3 C-3.65 4.65 -5.3 6.3 -7 8 C-20.06519787 18.30187216 -36.55667089 22.44120276 -53 21 C-68.86720648 19.06639676 -68.86720648 19.06639676 -73 17 C-73 11.72 -73 6.44 -73 1 C-70.710625 1.54140625 -70.710625 1.54140625 -68.375 2.09375 C-42.26312837 7.97174708 -24.25357463 0 0 0 Z " fill="#EF6A31" transform="translate(293,318)"/>
<path d="M0 0 C9.30125018 2.06694449 15.76133519 4.01337647 21 12.1875 C24.42972226 18.22524023 24.28528486 23.76453902 24.375 30.5625 C24.41238281 31.60986328 24.44976562 32.65722656 24.48828125 33.73632812 C24.579509 41.89107522 22.86480265 48.36473491 17.56469727 54.72143555 C16.1875 56.125 16.1875 56.125 14 58 C13.34 57.67 12.68 57.34 12 57 C12.495 56.154375 12.99 55.30875 13.5 54.4375 C15.76218886 49.25331719 15.51152364 45.67666084 13.875 40.3125 C10.51725968 34.38049211 6.35315129 33.1177171 0 31 C0 20.77 0 10.54 0 0 Z " fill="#FD975D" transform="translate(360,146)"/>
<path d="M0 0 C0 9.24 0 18.48 0 28 C-2.64 28.66 -5.28 29.32 -8 30 C-11.49621624 32.28014102 -13.46265153 34.14314332 -15 38 C-15.63672964 43.31595211 -16.15414912 49.04205116 -13.125 53.6875 C-11.21600758 56.0403276 -11.21600758 56.0403276 -9 57 C-9 57.66 -9 58.32 -9 59 C-15.5098755 56.95403913 -19.46390282 52.15141909 -22.93945312 46.49267578 C-25.05160275 41.52834621 -24.6323675 36.3067336 -24.5 31 C-24.50257812 29.86304688 -24.50515625 28.72609375 -24.5078125 27.5546875 C-24.42159477 20.12271887 -23.8960862 13.96195812 -19.38671875 7.79296875 C-12.8586311 1.62505146 -9.45651478 0 0 0 Z " fill="#FD975C" transform="translate(152,147)"/>
<path d="M0 0 C1.07242699 -0.00929787 1.07242699 -0.00929787 2.16651917 -0.01878357 C3.67520795 -0.02587154 5.18397511 -0.02272538 6.69262695 -0.01000977 C8.99382456 0.00384555 11.2909434 -0.03020464 13.59179688 -0.06835938 C15.06119891 -0.06931079 16.530606 -0.06745052 18 -0.0625 C18.68348007 -0.07575821 19.36696014 -0.08901642 20.07115173 -0.10267639 C23.89282533 -0.02869164 25.48413621 0.50054509 28.50415039 2.91821289 C30.56640625 5.56640625 30.56640625 5.56640625 31.12890625 8.56640625 C30.44282968 12.22548129 29.13906311 13.91808301 26.56640625 16.56640625 C22.17818212 18.76051832 16.31940747 17.87592047 11.44555664 17.91650391 C9.98966467 17.93304629 8.53385335 17.96031461 7.07836914 17.99853516 C4.97369502 18.05348748 2.87092118 18.07520241 0.765625 18.08984375 C-0.49419189 18.10966309 -1.75400879 18.12948242 -3.05200195 18.14990234 C-7.31618389 17.41411469 -8.76106503 15.89004766 -11.43359375 12.56640625 C-12.34097516 9.5399229 -11.89792508 7.81672555 -11.43359375 4.56640625 C-8.31194421 0.17241642 -5.06334405 -0.03663511 0 0 Z " fill="#393D41" transform="translate(281.43359375,129.43359375)"/>
<path d="M0 0 C0.69134033 -0.00478363 1.38268066 -0.00956726 2.0949707 -0.01449585 C3.55064176 -0.01788486 5.00638996 -0.008752 6.46191406 0.01220703 C8.68207497 0.03899704 10.89718261 0.01243603 13.1171875 -0.01953125 C14.53646942 -0.01622696 15.95574821 -0.00982031 17.375 0 C18.65761719 0.00563965 19.94023437 0.0112793 21.26171875 0.01708984 C25.5417132 0.82538412 27.03689063 2.27140753 29.6875 5.6640625 C30.24098638 9.53846718 29.98718563 12.44450262 27.6875 15.6640625 C22.65037459 18.99841318 16.2306202 18.07437576 10.41577148 18.08959961 C8.25975274 18.10150863 6.10658808 18.15072544 3.95117188 18.20117188 C2.57293056 18.2106361 1.19467176 18.21787114 -0.18359375 18.22265625 C-1.43068115 18.23611084 -2.67776855 18.24956543 -3.96264648 18.26342773 C-8.22237312 17.50126544 -9.68257139 16.03558497 -12.3125 12.6640625 C-12.9375 9.1640625 -12.9375 9.1640625 -12.3125 5.6640625 C-8.56305551 0.84272007 -6.01911794 0.02646597 0 0 Z " fill="#393D41" transform="translate(210.3125,129.3359375)"/>
<path d="M0 0 C5.87317278 0.55934979 9.83707173 2.61332053 13.8125 7 C16.29801893 11.18613715 16.40172419 15.17930971 16 20 C14.54284179 23.81899759 12.8997429 27.1002571 10 30 C9.6783616 32.37483147 9.6783616 32.37483147 9.69140625 35.12109375 C9.66626953 36.13880859 9.64113281 37.15652344 9.61523438 38.20507812 C9.58014282 40.35606055 9.54887854 42.5071089 9.52148438 44.65820312 C9.49505859 45.67720703 9.46863281 46.69621094 9.44140625 47.74609375 C9.42122437 49.14879517 9.42122437 49.14879517 9.40063477 50.57983398 C9 53 9 53 7.63256836 54.83618164 C6 56 6 56 3.4375 55.875 C1 55 1 55 -1 52 C-1.184747 49.09325193 -1.2558762 46.28481011 -1.23046875 43.37890625 C-1.23001053 42.52376938 -1.22955231 41.66863251 -1.2290802 40.7875824 C-1.22605719 38.9727134 -1.21816943 37.15784701 -1.20581055 35.34301758 C-1.18777482 32.60423259 -1.18529953 29.86579079 -1.18554688 27.12695312 C-1.16657635 18.04131716 -1.00845751 9.04130317 0 0 Z " fill="#FDFBFA" transform="translate(360,177)"/>
<path d="M0 0 C0.05057965 7.51136408 0.08568257 15.02268449 0.10986328 22.53417969 C0.11994038 25.09116253 0.13360226 27.64813379 0.15087891 30.20507812 C0.17505217 33.87372692 0.18646585 37.54222379 0.1953125 41.2109375 C0.20563507 42.35992523 0.21595764 43.50891296 0.22659302 44.69271851 C0.22674408 45.7536673 0.22689514 46.81461609 0.22705078 47.90771484 C0.231492 48.84481293 0.23593323 49.78191101 0.24050903 50.74740601 C0 53 0 53 -2 55 C-4.5 55.25 -4.5 55.25 -7 55 C-9 53 -9 53 -9.22705078 50.56982422 C-9.21134033 49.07733154 -9.21134033 49.07733154 -9.1953125 47.5546875 C-9.18564453 45.94013672 -9.18564453 45.94013672 -9.17578125 44.29296875 C-9.15902344 43.16503906 -9.14226562 42.03710938 -9.125 40.875 C-9.11597656 39.73933594 -9.10695312 38.60367188 -9.09765625 37.43359375 C-9.07403098 34.62218701 -9.04109013 31.81119702 -9 29 C-9.62447021 28.71648682 -10.24894043 28.43297363 -10.89233398 28.14086914 C-13.77918892 26.57822891 -14.62499654 24.95604719 -16 22 C-16.82118478 16.50324061 -16.72530457 11.56219446 -14.375 6.5 C-9.76073763 1.64288172 -6.70136345 -0.24266776 0 0 Z " fill="#FDFCFB" transform="translate(152,175)"/>
<path d="M0 0 C2.72918765 2.68520791 3.8924322 4.34525711 4.51757812 8.15039062 C4.52208984 9.30732422 4.52660156 10.46425781 4.53125 11.65625 C4.53640625 12.92597656 4.5415625 14.19570312 4.546875 15.50390625 C4.53140625 16.82261719 4.5159375 18.14132813 4.5 19.5 C4.51546875 20.81871094 4.5309375 22.13742188 4.546875 23.49609375 C4.54171875 24.76582031 4.5365625 26.03554687 4.53125 27.34375 C4.52673828 28.50068359 4.52222656 29.65761719 4.51757812 30.84960938 C3.89729743 34.62512921 2.64447489 36.28638851 0 39 C-2.88861709 40.44430855 -4.79647701 40.37688506 -8 40 C-10.875 38.25 -10.875 38.25 -13 35 C-13.41449604 30.96522209 -13.28999494 27.04059621 -13 23 C-11.35 22.67 -9.7 22.34 -8 22 C-8 17.71 -8 13.42 -8 9 C-9.65 8.67 -11.3 8.34 -13 8 C-12.75775727 4.36635898 -12.62053762 2.5657843 -9.875 0.0625 C-6.06658941 -1.34495609 -3.8872978 -1.13085027 0 0 Z " fill="#3D3F43" transform="translate(225,152)"/>
<path d="M0 0 C4.15505424 1.28428949 5.12462562 2.43792028 7.4375 6.0625 C7.95507812 9.21289062 7.95507812 9.21289062 7.96875 12.71875 C7.97390625 13.98847656 7.9790625 15.25820312 7.984375 16.56640625 C7.96890625 17.88511719 7.9534375 19.20382813 7.9375 20.5625 C7.95296875 21.88121094 7.9684375 23.19992188 7.984375 24.55859375 C7.97921875 25.82832031 7.9740625 27.09804687 7.96875 28.40625 C7.96423828 29.56318359 7.95972656 30.72011719 7.95507812 31.91210938 C7.33479743 35.68762921 6.08197489 37.34888851 3.4375 40.0625 C0.54888291 41.50680855 -1.35897701 41.43938506 -4.5625 41.0625 C-7.4375 39.3125 -7.4375 39.3125 -9.5625 36.0625 C-9.97699604 32.02772209 -9.85249494 28.10309621 -9.5625 24.0625 C-7.9125 23.7325 -6.2625 23.4025 -4.5625 23.0625 C-4.5625 18.7725 -4.5625 14.4825 -4.5625 10.0625 C-6.2125 9.7325 -7.8625 9.4025 -9.5625 9.0625 C-9.2806109 5.67983079 -8.73185563 4.25177982 -6.4375 1.6875 C-3.5625 0.0625 -3.5625 0.0625 0 0 Z " fill="#3B3F42" transform="translate(291.5625,150.9375)"/>
<path d="M0 0 C1.79133978 -0.05391993 3.58313899 -0.09275571 5.375 -0.125 C6.37273437 -0.14820313 7.37046875 -0.17140625 8.3984375 -0.1953125 C11 0 11 0 13 2 C13.7680435 9.94293089 10.32065377 16.54982614 6 23 C2.30138178 27.20748851 -1.31963635 31.01266817 -7 32 C-7.23074219 31.34773438 -7.46148437 30.69546875 -7.69921875 30.0234375 C-11.7519447 19.16277271 -16.77332613 15.10214802 -27 10 C-25.97845825 9.970271 -25.97845825 9.970271 -24.9362793 9.93994141 C-21.85296083 9.84473017 -18.77032351 9.73503534 -15.6875 9.625 C-14.61564453 9.5940625 -13.54378906 9.563125 -12.43945312 9.53125 C-10.89741211 9.47324219 -10.89741211 9.47324219 -9.32421875 9.4140625 C-7.9024231 9.36693115 -7.9024231 9.36693115 -6.4519043 9.31884766 C-3.7469731 9.1510949 -3.7469731 9.1510949 -1 7 C-0.26393501 3.43230448 -0.26393501 3.43230448 0 0 Z " fill="#BF1524" transform="translate(279,240)"/>
<path d="M0 0 C15.18 0 30.36 0 46 0 C46 2.31 46 4.62 46 7 C43.62953469 9.37046531 43.16595828 9.25183138 39.94921875 9.25878906 C38.69782104 9.26824554 38.69782104 9.26824554 37.42114258 9.27789307 C36.51904053 9.2738446 35.61693848 9.26979614 34.6875 9.265625 C33.30050903 9.26849518 33.30050903 9.26849518 31.88549805 9.27142334 C29.92854541 9.27278566 27.97158376 9.26908596 26.01464844 9.26074219 C23.0121641 9.25004334 20.01027813 9.26063591 17.0078125 9.2734375 C15.10937367 9.27211591 13.21093522 9.26955354 11.3125 9.265625 C10.41039795 9.26967346 9.5082959 9.27372192 8.57885742 9.27789307 C7.32745972 9.26843658 7.32745972 9.26843658 6.05078125 9.25878906 C5.31512939 9.25719788 4.57947754 9.25560669 3.8215332 9.25396729 C2 9 2 9 0 7 C0 4.69 0 2.38 0 0 Z " fill="#FEFEFE" transform="translate(233,240)"/>
<path d="M0 0 C0.90492188 0.02320313 1.80984375 0.04640625 2.7421875 0.0703125 C4.10730469 0.09738281 4.10730469 0.09738281 5.5 0.125 C6.19867188 0.14820313 6.89734375 0.17140625 7.6171875 0.1953125 C7.8853125 1.2678125 8.1534375 2.3403125 8.4296875 3.4453125 C9.50083721 6.82789052 10.45195564 8.51398428 12.6171875 11.1953125 C11.20390621 12.01368692 9.78640404 12.82477469 8.3671875 13.6328125 C7.18382812 14.31150391 7.18382812 14.31150391 5.9765625 15.00390625 C3.82885282 16.08842852 1.96513689 16.72679966 -0.3828125 17.1953125 C-5.1704261 7.57733875 -5.1704261 7.57733875 -4.3828125 2.1953125 C-2.3828125 0.1953125 -2.3828125 0.1953125 0 0 Z " fill="#C01826" transform="translate(224.3828125,239.8046875)"/>
<path d="M0 0 C0.33 0 0.66 0 1 0 C1.08119503 2.24940295 1.13927819 4.49964871 1.1875 6.75 C1.22230469 8.00296875 1.25710938 9.2559375 1.29296875 10.546875 C0.98667006 14.15711559 0.61320942 15.54516691 -2 18 C-5.06656388 18.44720723 -7.02058097 18.63011574 -9.67578125 16.921875 C-11.71681125 13.95967217 -11.28487183 11.35034313 -11.1875 7.8125 C-11.16042969 6.54019531 -11.13335937 5.26789063 -11.10546875 3.95703125 C-11.07066406 2.98121094 -11.03585937 2.00539063 -11 1 C-10.37351562 1.09539062 -9.74703125 1.19078125 -9.1015625 1.2890625 C-7.87566406 1.45535156 -7.87566406 1.45535156 -6.625 1.625 C-5.81289063 1.74101562 -5.00078125 1.85703125 -4.1640625 1.9765625 C-3.44992187 1.98429687 -2.73578125 1.99203125 -2 2 C-1.34 1.34 -0.68 0.68 0 0 Z " fill="#DD162A" transform="translate(312,474)"/>
<path d="M0 0 C0.33 0 0.66 0 1 0 C1.08119503 2.24940295 1.13927819 4.49964871 1.1875 6.75 C1.22230469 8.00296875 1.25710937 9.2559375 1.29296875 10.546875 C0.98683107 14.15521782 0.61569672 15.54892755 -2 18 C-6.08165827 18.51020728 -7.52957297 18.31361802 -11 16 C-11.22137393 13.37302936 -11.28162025 10.99106036 -11.1875 8.375 C-11.17396484 7.66859375 -11.16042969 6.9621875 -11.14648438 6.234375 C-11.1111104 4.48925872 -11.05730221 2.74453392 -11 1 C-10.01 1.495 -10.01 1.495 -9 2 C-5.5 2.25 -5.5 2.25 -2 2 C-1.34 1.34 -0.68 0.68 0 0 Z " fill="#DD172A" transform="translate(214,474)"/>
<path d="M0 0 C0.33 0 0.66 0 1 0 C1.32470459 4.13998349 1.4304413 6.33999001 -0.875 9.875 C-3.37454287 12.37454287 -4.32175958 12.90956794 -7.8125 13.375 C-11 13 -11 13 -13.875 10.9375 C-16.47048413 7.34962488 -16.4247346 5.3322929 -16 1 C-14.948125 1.99 -14.948125 1.99 -13.875 3 C-11.15610238 5.18293783 -11.15610238 5.18293783 -8 5.5625 C-4.04202009 4.82037877 -2.60237631 2.97414435 0 0 Z " fill="#FB965B" transform="translate(228,186)"/>
<path d="M0 0 C0.33 0 0.66 0 1 0 C1.32470459 4.13998349 1.4304413 6.33999001 -0.875 9.875 C-3.37454287 12.37454287 -4.32175958 12.90956794 -7.8125 13.375 C-11 13 -11 13 -13.875 10.9375 C-16.47048413 7.34962488 -16.4247346 5.3322929 -16 1 C-14.948125 1.99 -14.948125 1.99 -13.875 3 C-11.15610238 5.18293783 -11.15610238 5.18293783 -8 5.5625 C-4.04202009 4.82037877 -2.60237631 2.97414435 0 0 Z " fill="#FB955A" transform="translate(298,186)"/>
<path d="M0 0 C5 1 5 1 7.3125 3.125 C9.38044558 6.64816654 9.31523361 8.98077152 9 13 C4.545 12.01 4.545 12.01 0 11 C0 7.37 0 3.74 0 0 Z " fill="#EF6C33" transform="translate(360,166)"/>
<path d="M0 0 C0 3.3 0 6.6 0 10 C-3.3 10.66 -6.6 11.32 -10 12 C-10.35671933 8.16526716 -10.29771416 6.44657125 -8.125 3.1875 C-5.07965056 0.05258146 -4.52687977 0 0 0 Z " fill="#EB6C34" transform="translate(152,165)"/>
<path d="M0 0 C1.65 0.33 3.3 0.66 5 1 C5 5.29 5 9.58 5 14 C3.35 14.33 1.7 14.66 0 15 C-1 14 -1 14 -1.1328125 11.09375 C-1.13023437 9.9078125 -1.12765625 8.721875 -1.125 7.5 C-1.12757813 6.3140625 -1.13015625 5.128125 -1.1328125 3.90625 C-1 1 -1 1 0 0 Z " fill="#FDFDFD" transform="translate(283,160)"/>
<path d="M0 0 C1.65 0.33 3.3 0.66 5 1 C5 5.29 5 9.58 5 14 C3.35 14.33 1.7 14.66 0 15 C-1 14 -1 14 -1.1328125 11.09375 C-1.13023437 9.9078125 -1.12765625 8.721875 -1.125 7.5 C-1.12757813 6.3140625 -1.13015625 5.128125 -1.1328125 3.90625 C-1 1 -1 1 0 0 Z " fill="#FAFAFA" transform="translate(213,160)"/>
</svg>
