<?xml version="1.0" encoding="UTF-8"?>
<svg version="1.1" xmlns="http://www.w3.org/2000/svg" width="512" height="512">
<path d="M0 0 C45.12041067 -0.72660962 45.12041067 -0.72660962 64.43560791 3.0435791 C65.78114746 3.28503662 65.78114746 3.28503662 67.15386963 3.53137207 C126.96399695 14.35395899 184.4780662 48.41172367 221.43560791 97.0435791 C221.85229736 97.58385742 222.26898682 98.12413574 222.69830322 98.68078613 C230.38159521 108.6757907 237.12403759 119.13566946 243.43560791 130.0435791 C243.8298999 130.72082031 244.22419189 131.39806152 244.63043213 132.0958252 C257.81271964 155.0144547 266.41821709 180.58930473 271.74810791 206.4185791 C271.89554443 207.12925537 272.04298096 207.83993164 272.19488525 208.57214355 C275.18024578 224.21466276 275.81041771 239.85027517 275.74810791 255.7310791 C275.74537369 257.18216568 275.74537369 257.18216568 275.74258423 258.66256714 C275.69715617 272.99548887 275.18826863 286.94131827 272.43560791 301.0435791 C272.27463623 301.94060547 272.11366455 302.83763184 271.94781494 303.76184082 C261.12522802 363.57196814 227.06746334 421.08603739 178.43560791 458.0435791 C177.89532959 458.46026855 177.35505127 458.87695801 176.79840088 459.30627441 C166.80339631 466.9895664 156.34351755 473.73200878 145.43560791 480.0435791 C144.7583667 480.43787109 144.08112549 480.83216309 143.38336182 481.23840332 C105.77997042 502.86704026 62.86927798 512.52003865 19.81060791 512.3560791 C18.28374863 512.35284637 18.28374863 512.35284637 16.7260437 512.34954834 C2.11697268 512.29987764 -12.21515062 512.04898101 -26.56439209 509.0435791 C-28.02667236 508.74556396 -28.02667236 508.74556396 -29.51849365 508.44152832 C-89.10271594 495.97757709 -145.35401838 464.00813224 -182.56439209 415.0435791 C-182.98108154 414.50330078 -183.397771 413.96302246 -183.8270874 413.40637207 C-191.51037939 403.4113675 -198.25282177 392.95148874 -204.56439209 382.0435791 C-204.95868408 381.36633789 -205.35297607 380.68909668 -205.75921631 379.99133301 C-218.94150382 357.0727035 -227.54700127 331.49785347 -232.87689209 305.6685791 C-233.02432861 304.95790283 -233.17176514 304.24722656 -233.32366943 303.51501465 C-236.30902996 287.87249544 -236.93920189 272.23688304 -236.87689209 256.3560791 C-236.87506927 255.38868805 -236.87324646 254.421297 -236.87136841 253.42459106 C-236.82594035 239.09166933 -236.31705281 225.14583993 -233.56439209 211.0435791 C-233.32293457 209.69803955 -233.32293457 209.69803955 -233.07659912 208.32531738 C-222.2540122 148.51519006 -188.19624752 91.00112081 -139.56439209 54.0435791 C-139.02411377 53.62688965 -138.48383545 53.2102002 -137.92718506 52.78088379 C-124.71126178 42.62162906 -110.56298625 34.19244185 -95.97088623 26.17810059 C-92.40514881 24.18786942 -89.20689691 22.11270412 -86.06439209 19.4810791 C-62.25783925 0.12141066 -29.0102802 0.49299869 0 0 Z " fill="#F5B996" transform="translate(236.56439208984375,-0.0435791015625)"/>
<path d="M0 0 C10.6437844 10.32970552 18.39227336 22.56939159 18.67578125 37.7421875 C18.70505827 41.705072 18.65000211 45.66309874 18.5625 49.625 C19.243125 49.77195312 19.92375 49.91890625 20.625 50.0703125 C49.94727237 56.85498722 79.73420052 72.76175744 96.5 98.5625 C100.62438385 105.21216773 104.01268102 112.22279823 106.5625 119.625 C106.83175293 120.40601074 107.10100586 121.18702148 107.37841797 121.99169922 C110.37417009 132.01123963 110.02505492 142.14554922 109.9375 152.5 C109.93101944 153.93697739 109.93101944 153.93697739 109.92440796 155.40298462 C109.68548578 200.44052132 109.68548578 200.44052132 99.5625 215.625 C98.9025 215.625 98.2425 215.625 97.5625 215.625 C96.0775 209.685 96.0775 209.685 94.5625 203.625 C86.00787667 205.97307661 86.00787667 205.97307661 78.5625 210.625 C76.12773974 215.15194118 76.17864372 220.51464132 75.79638672 225.54492188 C74.69488489 235.34115945 68.68783514 243.24069971 61.5625 249.625 C50.83656322 257.90592291 38.2993097 260.82345124 25.0078125 259.33984375 C12.77104891 257.37662467 2.90426284 250.65519434 -4.55078125 240.84375 C-9.08070156 234.01604403 -11.4375 228.90445505 -11.4375 220.625 C-16.7175 220.625 -21.9975 220.625 -27.4375 220.625 C-27.5921875 222.3884375 -27.5921875 222.3884375 -27.75 224.1875 C-29.30984099 236.20249145 -37.16023993 245.43839009 -46.4375 252.625 C-56.88976289 260.14329436 -69.17192779 260.90775477 -81.5625 259 C-92.97922488 256.34968887 -102.64510817 249.05022875 -109.1875 239.5 C-114.58955756 230.50890419 -116.81752836 221.00952497 -117.4375 210.625 C-125.3575 207.16 -125.3575 207.16 -133.4375 203.625 C-133.9015625 205.7596875 -133.9015625 205.7596875 -134.375 207.9375 C-134.94949363 210.58017072 -135.58052306 213.05406918 -136.4375 215.625 C-139.4375 214.625 -139.4375 214.625 -140.71875 212.2109375 C-144.73855172 201.62030604 -147.71538242 191.06205526 -147.4375 179.625 C-148.98244141 179.71201172 -148.98244141 179.71201172 -150.55859375 179.80078125 C-174.79094155 180.74650396 -199.31632134 169.46875108 -217.4375 153.625 C-218.0975 152.635 -218.7575 151.645 -219.4375 150.625 C-218.45007813 150.78355469 -217.46265625 150.94210938 -216.4453125 151.10546875 C-203.76306004 152.89856472 -190.13698544 152.63401629 -178.9375 145.6875 C-168.6652163 137.21286594 -164.5482509 128.4349127 -161.4375 115.625 C-161.26565186 115.0465332 -161.09380371 114.46806641 -160.91674805 113.87207031 C-160.25344956 110.76203503 -160.15652857 107.71119142 -160.0078125 104.53515625 C-159.93625291 103.10649938 -159.86412786 101.67787074 -159.79150391 100.24926758 C-159.75454407 99.50415924 -159.71758423 98.7590509 -159.67950439 97.99136353 C-157.908867 63.12680205 -153.67596679 28.70790467 -126.4375 3.625 C-95.03984314 -19.95394439 -31.26386468 -26.93863828 0 0 Z " fill="#30383B" transform="translate(275.4375,16.375)"/>
<path d="M0 0 C48.41650737 -0.6273652 48.41650737 -0.6273652 67 3 C67.89702637 3.16097168 68.79405273 3.32194336 69.71826172 3.48779297 C129.52838904 14.31037989 187.04245829 48.36814457 224 97 C224.41668945 97.54027832 224.83337891 98.08055664 225.26269531 98.63720703 C232.9459873 108.6322116 239.68842968 119.09209036 246 130 C246.39429199 130.67724121 246.78858398 131.35448242 247.19482422 132.05224609 C260.37711173 154.9708756 268.98260918 180.54572563 274.3125 206.375 C274.45993652 207.08567627 274.60737305 207.79635254 274.75927734 208.52856445 C277.74463787 224.17108366 278.3748098 239.80669606 278.3125 255.6875 C278.30976578 257.13858658 278.30976578 257.13858658 278.30697632 258.61898804 C278.26154826 272.95190977 277.75266072 286.89773917 275 301 C274.83902832 301.89702637 274.67805664 302.79405273 274.51220703 303.71826172 C263.69348493 363.50703042 229.63894234 421.07166484 181 458 C180.17363037 458.63301025 180.17363037 458.63301025 179.33056641 459.27880859 C172.16014811 464.74957219 164.82216627 469.88375243 157.1875 474.6875 C156.49954346 475.1218335 155.81158691 475.55616699 155.1027832 476.00366211 C150.25369646 479 150.25369646 479 148 479 C147.99589111 477.79690186 147.99178223 476.59380371 147.98754883 475.35424805 C147.96540232 470.79313104 147.91076058 466.23283414 147.84741211 461.67211914 C147.82453623 459.71647132 147.80990965 457.76070562 147.80444336 455.80493164 C147.71900357 430.23214435 141.44421499 407.92464107 125 388 C124.21625 386.948125 123.4325 385.89625 122.625 384.8125 C110.35893197 371.67028425 94.82684274 363.60894758 78 358 C78 357.34 78 356.68 78 356 C77.32453125 355.7525 76.6490625 355.505 75.953125 355.25 C72.4028872 353.74725384 69.08984224 351.91244078 65.75 350 C64.79480469 349.46632813 64.79480469 349.46632813 63.8203125 348.921875 C59.12118676 346.24237351 59.12118676 346.24237351 58 344 C58.76441406 343.731875 59.52882813 343.46375 60.31640625 343.1875 C74.2951768 338.07372594 86.40599492 331.35965205 98 322 C98.65355469 321.49984375 99.30710937 320.9996875 99.98046875 320.484375 C105.49959054 316.08928488 109.69246782 310.5446435 114 305 C114.68320312 304.1440625 115.36640625 303.288125 116.0703125 302.40625 C120.68882413 296.39312897 124.14731545 290.12987968 127.38696289 283.3059082 C129.82459446 278.17540554 129.82459446 278.17540554 132 276 C132.73089844 276.433125 132.73089844 276.433125 133.4765625 276.875 C141.06405702 280.84808804 149.35970801 281.55336466 157.65234375 279.26953125 C159.89895283 278.32864369 161.91841029 277.26144336 164 276 C164.62390625 275.66097656 165.2478125 275.32195312 165.890625 274.97265625 C172.28958784 271.0637246 175.33424722 264.63436969 178.375 258 C180.36642561 248.44115708 178.33234295 240.69888861 174 232 C169.05287133 225.03962265 162.61597115 220.83583627 154.23828125 219.2265625 C151.48296692 218.94766506 148.76735658 218.96040978 146 219 C146.30744141 217.22496094 146.30744141 217.22496094 146.62109375 215.4140625 C146.89340779 213.81773879 147.16553303 212.22138287 147.4375 210.625 C147.63956055 209.46291016 147.63956055 209.46291016 147.84570312 208.27734375 C149.37569036 199.24668736 150.15793119 190.30219209 150.23828125 181.14453125 C150.25038887 179.78747322 150.25038887 179.78747322 150.26274109 178.40299988 C150.27646826 176.50135143 150.28724032 174.59967952 150.29516602 172.69799805 C150.30666868 170.78320923 150.32709328 168.86845205 150.35668945 166.95385742 C150.58958756 151.82588902 149.52052627 138.36839691 142.25 124.75 C141.90420898 124.08581055 141.55841797 123.42162109 141.20214844 122.73730469 C132.72561698 106.85245381 120.39845383 94.2648303 105 85 C104.33709961 84.60071289 103.67419922 84.20142578 102.99121094 83.79003906 C89.41375276 75.79338438 74.9607439 70.78897949 60 66 C59.94392578 64.47632812 59.94392578 64.47632812 59.88671875 62.921875 C59.07192903 44.52289058 54.74951583 30.0364129 41 17 C28.9544164 6.85322761 15.07763258 3.82311321 0 1 C0 0.67 0 0.34 0 0 Z " fill="#FEDF5C" transform="translate(234,0)"/>
<path d="M0 0 C0.99 0.495 0.99 0.495 2 1 C1.43152344 1.58265625 0.86304688 2.1653125 0.27734375 2.765625 C-18.7900245 23.01077727 -24.13850445 49.80483914 -25.39453125 76.7890625 C-25.42873672 77.50069046 -25.4629422 78.21231842 -25.4981842 78.94551086 C-25.71163894 83.39038523 -25.71163894 83.39038523 -25.89868164 87.83642578 C-26.54759639 104.11532883 -28.92760478 121.92760478 -41 134 C-52.47714336 143.59643499 -65.65106618 144.88861418 -80 144 C-82.00566055 143.70261666 -84.0089627 143.38325131 -86 143 C-64.86429223 159.7227578 -42.22335654 170.33357756 -15 171 C-14.49599549 173.91602609 -13.99665334 176.83272092 -13.5 179.75 C-13.35691406 180.575 -13.21382812 181.4 -13.06640625 182.25 C-12.93105469 183.04921875 -12.79570312 183.8484375 -12.65625 184.671875 C-12.53056641 185.4050293 -12.40488281 186.13818359 -12.27539062 186.89355469 C-12 189 -12 189 -12 193 C-13.03447266 193.12955078 -13.03447266 193.12955078 -14.08984375 193.26171875 C-25.35243988 194.94570089 -32.66212125 199.33223325 -39.6875 208.3125 C-44.05144083 214.68001114 -45.06578869 222.43072521 -44 230 C-40.9963153 239.83024083 -36.94299094 246.51150456 -28.16015625 251.921875 C-20.29528288 255.84720059 -11.33031932 256.52864519 -2.8671875 254.1015625 C-0.51649535 253.15726736 1.72935399 252.11802787 4 251 C4.25056152 251.50225098 4.50112305 252.00450195 4.75927734 252.52197266 C19.68588427 282.21948948 40.90125172 307.05274902 73.4375 318 C74.613125 318.33 75.78875 318.66 77 319 C73.7106702 322.6695036 70.12557223 324.88370205 65.875 327.25 C64.92560547 327.79527344 64.92560547 327.79527344 63.95703125 328.3515625 C59.2675047 331 59.2675047 331 57 331 C57 331.66 57 332.32 57 333 C56.23558594 333.268125 55.47117188 333.53625 54.68359375 333.8125 C40.94760629 338.83745811 28.8757705 345.07502538 18 355 C17.15953125 355.73605469 16.3190625 356.47210938 15.453125 357.23046875 C-2.28730128 373.67617448 -11.05075974 397.30573789 -12.09030151 421.06378174 C-12.29110609 426.4580031 -12.42751253 431.85380686 -12.5625 437.25 C-12.60581035 438.88151866 -12.64942804 440.51302919 -12.69335938 442.14453125 C-12.79910976 446.09626957 -12.90072352 450.04809396 -13 454 C-25.51436159 449.20658129 -36.69987991 440.41449297 -47 432 C-47.53238281 431.57058105 -48.06476563 431.14116211 -48.61328125 430.69873047 C-63.354378 418.74137902 -77.61800946 405.22725761 -89 390 C-89.86190416 388.87884859 -90.72388867 387.75775894 -91.5859375 386.63671875 C-98.76550525 377.18324054 -105.05762882 367.26984483 -111 357 C-111.39429199 356.32275879 -111.78858398 355.64551758 -112.19482422 354.94775391 C-125.37711173 332.0291244 -133.98260918 306.45427437 -139.3125 280.625 C-139.45993652 279.91432373 -139.60737305 279.20364746 -139.75927734 278.47143555 C-142.74463787 262.82891634 -143.3748098 247.19330394 -143.3125 231.3125 C-143.31067719 230.34510895 -143.30885437 229.3777179 -143.30697632 228.38101196 C-143.26154826 214.04809023 -142.75266072 200.10226083 -140 186 C-139.75854248 184.65446045 -139.75854248 184.65446045 -139.51220703 183.28173828 C-128.68962011 123.47161096 -94.63185543 65.95754171 -46 29 C-45.45972168 28.58331055 -44.91944336 28.16662109 -44.36279297 27.73730469 C-30.79178252 17.30508976 -15.75737295 6.85548044 0 0 Z " fill="#FEDF5C" transform="translate(143,25)"/>
<path d="M0 0 C3.43320667 14.67557862 6.54789796 29.3954491 9.44677734 44.18554688 C10.28683475 48.459237 11.1427724 52.7297257 12 57 C15.05270463 57.15811388 15.05270463 57.15811388 18 56 C18.43570313 56.59167969 18.87140625 57.18335938 19.3203125 57.79296875 C26.20805949 66.93190578 34.1010469 73.66261675 45.46875 76.6484375 C58.03632214 78.39393363 69.97307804 76.56989538 80.5 69.125 C83.57359591 66.57793016 86.18047362 63.72347844 88.67578125 60.61328125 C90.02750978 58.96648514 91.47213427 57.48306029 93 56 C95.475 57.485 95.475 57.485 98 59 C98.16242188 57.14568359 98.16242188 57.14568359 98.328125 55.25390625 C98.98524963 49.36390975 100.36240655 43.69154929 101.75 37.9375 C104.72833165 25.33630764 107.42215213 12.68854785 110 0 C115.24287109 0.54796459 119.7256697 1.80219297 124.5625 3.9375 C125.25214844 4.24107422 125.94179688 4.54464844 126.65234375 4.85742188 C134.13871438 8.30581421 140.54178071 12.92627701 147 18 C148.11955078 18.84304688 148.11955078 18.84304688 149.26171875 19.703125 C165.69519545 32.90324016 175.14540877 52.97481118 180 73 C180.18103271 73.69085693 180.36206543 74.38171387 180.54858398 75.09350586 C181.22238031 79.43182129 181.12181021 83.72996237 181.09765625 88.11328125 C181.09553383 89.56760811 181.09553383 89.56760811 181.09336853 91.05131531 C181.08778513 94.13840867 181.07523564 97.22542867 181.0625 100.3125 C181.05748286 102.40950416 181.05292032 104.50650946 181.04882812 106.60351562 C181.03782112 111.73570521 181.02056788 116.86784018 181 122 C171.4833168 127.16630019 162.03880855 132.17634532 151.9375 136.125 C150.88731689 136.5389502 149.83713379 136.95290039 148.75512695 137.37939453 C118.40746945 149.08171585 87.79397086 154.43594552 55.375 154.3125 C54.35709381 154.31034485 53.33918762 154.3081897 52.29043579 154.30596924 C37.68136477 154.25629854 23.34924147 154.00540191 9 151 C7.53771973 150.70198486 7.53771973 150.70198486 6.04589844 150.39794922 C-20.91708936 144.75777549 -47.10170636 135.84058317 -71 122 C-71.02500545 117.09277707 -71.04300225 112.18559248 -71.05493164 107.27832031 C-71.05991292 105.61425123 -71.06670037 103.95018641 -71.07543945 102.28613281 C-71.22830304 72.39680546 -65.42724369 46.33898349 -43.8125 24.3125 C-33.09537156 13.7802032 -15.77160508 0 0 0 Z " fill="#1DA2DC" transform="translate(201,358)"/>
<path d="M0 0 C9.28270573 9.00878983 17.52612601 20.29164997 18.5625 33.625 C18.42137185 38.65017016 18.05043001 43.62042055 17.5625 48.625 C14.18733247 48.14700865 10.81239719 47.6673961 7.4375 47.1875 C6.48617187 47.05279297 5.53484375 46.91808594 4.5546875 46.77929688 C0.7769598 46.24149536 -2.99145934 45.70337271 -6.75 45.04296875 C-24.21486877 42.3267755 -40.66247791 46.84207942 -55.1796875 56.4375 C-74.34094728 70.76367554 -84.42891943 93.47882385 -88.15234375 116.5703125 C-88.51067372 119.71454936 -88.51067372 119.71454936 -88.31640625 123.2421875 C-88.21790162 128.90910076 -88.13956961 133.5489744 -92.00390625 137.94140625 C-94.21651073 140.16419455 -96.54853397 142.24280519 -98.88671875 144.33203125 C-118.56513223 161.98698472 -129.33323287 190.86253045 -136.4375 215.625 C-139.4375 214.625 -139.4375 214.625 -140.71875 212.2109375 C-144.73855172 201.62030604 -147.71538242 191.06205526 -147.4375 179.625 C-148.98244141 179.71201172 -148.98244141 179.71201172 -150.55859375 179.80078125 C-174.79094155 180.74650396 -199.31632134 169.46875108 -217.4375 153.625 C-218.0975 152.635 -218.7575 151.645 -219.4375 150.625 C-218.45007813 150.78355469 -217.46265625 150.94210938 -216.4453125 151.10546875 C-203.76306004 152.89856472 -190.13698544 152.63401629 -178.9375 145.6875 C-168.6652163 137.21286594 -164.5482509 128.4349127 -161.4375 115.625 C-161.26565186 115.0465332 -161.09380371 114.46806641 -160.91674805 113.87207031 C-160.25344956 110.76203503 -160.15652857 107.71119142 -160.0078125 104.53515625 C-159.93625291 103.10649938 -159.86412786 101.67787074 -159.79150391 100.24926758 C-159.75454407 99.50415924 -159.71758423 98.7590509 -159.67950439 97.99136353 C-157.908867 63.12680205 -153.67596679 28.70790467 -126.4375 3.625 C-95.03984314 -19.95394439 -31.26386468 -26.93863828 0 0 Z " fill="#151A1C" transform="translate(275.4375,16.375)"/>
<path d="M0 0 C1.06992188 0.00064453 2.13984375 0.00128906 3.2421875 0.00195312 C11.0765635 0.0463545 11.0765635 0.0463545 14.5 1.1875 C14.47679687 2.09371094 14.45359375 2.99992187 14.4296875 3.93359375 C14.23017978 17.40036471 16.17870056 29.49878923 25.5 40 C34.42811836 48.18410849 46.28372251 51.8230359 58.11328125 51.62109375 C64.86726534 51.2121699 70.57925064 48.29589342 76.5 45.1875 C73.3066236 40.04322129 70.06088482 34.95840436 66.5859375 30 C65.83727417 28.92975586 65.83727417 28.92975586 65.07348633 27.83789062 C64.07414874 26.41566322 63.06885616 24.99759971 62.05737305 23.58398438 C61.5962915 22.92720703 61.13520996 22.27042969 60.66015625 21.59375 C60.03572632 20.71686523 60.03572632 20.71686523 59.39868164 19.82226562 C58.5 18.1875 58.5 18.1875 58.5 15.1875 C80.00568792 31.27646293 95.98552243 50.13675867 107.625 74.4375 C107.93260254 75.06954346 108.24020508 75.70158691 108.55712891 76.3527832 C110.62155059 80.82284824 110.62155059 80.82284824 109.5 84.1875 C107.13671875 85.57421875 107.13671875 85.57421875 104.1875 86.875 C103.22199219 87.31199219 102.25648438 87.74898438 101.26171875 88.19921875 C98.5 89.1875 98.5 89.1875 94.5 89.1875 C92.9375 87.17578125 92.9375 87.17578125 91.5 84.5 C90.97921875 83.5821875 90.4584375 82.664375 89.921875 81.71875 C89.45265625 80.8834375 88.9834375 80.048125 88.5 79.1875 C82.96455834 70.68664316 73.14267568 65.56267045 63.5 63.1875 C49.11363683 60.79855569 37.26450545 63.52230856 25.2109375 71.75 C15.89498047 79.23154078 11.79416364 88.71668182 9.5 100.1875 C4.22 100.1875 -1.06 100.1875 -6.5 100.1875 C-6.850625 98.434375 -7.20125 96.68125 -7.5625 94.875 C-10.26794387 84.19164256 -16.3576388 75.40487083 -25.5 69.1875 C-29.40340306 67.19254042 -33.36239345 65.62489637 -37.5 64.1875 C-38.675625 63.754375 -39.85125 63.32125 -41.0625 62.875 C-53.29070835 60.42935833 -65.0063288 62.93437681 -75.390625 69.73046875 C-76.08671875 70.21128906 -76.7828125 70.69210938 -77.5 71.1875 C-78.386875 71.765 -79.27375 72.3425 -80.1875 72.9375 C-85.1812681 77.7963014 -89.12134266 83.63740416 -91.5 90.1875 C-96.96737191 88.43942871 -102.25824848 86.52955919 -107.5 84.1875 C-106.87226906 79.63645072 -105.06681353 75.85908781 -103 71.8125 C-102.46596558 70.76292114 -102.46596558 70.76292114 -101.92114258 69.69213867 C-95.37244265 56.99288378 -88.20289207 45.71132994 -78.5 35.1875 C-78.03223145 34.67058594 -77.56446289 34.15367187 -77.08251953 33.62109375 C-57.2398985 11.87799511 -29.42572 -0.34682921 0 0 Z " fill="#F4B896" transform="translate(254.5,124.8125)"/>
<path d="M0 0 C0.33773437 0.92683594 0.67546875 1.85367188 1.0234375 2.80859375 C1.46945313 4.00613281 1.91546875 5.20367187 2.375 6.4375 C2.81585938 7.63246094 3.25671875 8.82742187 3.7109375 10.05859375 C4.67085236 13.10196898 4.67085236 13.10196898 7 14 C7.19916016 13.07767578 7.19916016 13.07767578 7.40234375 12.13671875 C7.57894531 11.32847656 7.75554687 10.52023438 7.9375 9.6875 C8.11152344 8.88699219 8.28554687 8.08648437 8.46484375 7.26171875 C9 5 9 5 10 2 C12.02077207 2.60077008 14.01387326 3.29307353 16 4 C16.91652344 4.24878906 17.83304688 4.49757812 18.77734375 4.75390625 C22.01631368 5.83923783 24.34715857 6.83189704 27 9 C28.13141606 12.45760748 28.38277021 15.60923998 28.640625 19.234375 C29.63648528 29.66925884 34.63318625 38.6862804 42 46 C49.23115708 51.94675973 57.62599259 56.20221214 67 57 C64.21482829 59.78517171 62.41031718 59.98534581 58.5 60.125 C55 60 55 60 52 59 C57.52081718 70.06597812 63.03366024 80.47441225 71 90 C71.68320313 90.845625 72.36640625 91.69125 73.0703125 92.5625 C82.75613393 103.99963232 94.86842275 112.04506628 108 119 C109.05380859 119.59554687 109.05380859 119.59554687 110.12890625 120.203125 C123.45132564 127.45420423 139.14435112 131.78721312 154 128 C155.33322632 127.66623891 156.66654265 127.33283686 158 127 C158.95673549 153.4242984 158.95673549 153.4242984 149.8125 164.375 C143.05429188 171.38970777 136.15109767 175.02994546 126.41601562 175.29248047 C119.14530199 175.36167714 113.24892449 175.01984922 107 171 C106.30519531 170.57589844 105.61039063 170.15179688 104.89453125 169.71484375 C96.81447024 164.27255125 92.19991656 156.38832474 90 147 C89.67756722 143.46452956 89.71103615 139.9835316 89.8125 136.4375 C89.83280273 135.06754883 89.83280273 135.06754883 89.85351562 133.66992188 C89.88844685 131.44596741 89.93748414 129.22332048 90 127 C89.33049316 126.86255371 88.66098633 126.72510742 87.97119141 126.58349609 C63.16030961 121.2169421 39.60692565 101.12274068 26 80.3515625 C23.02569396 75.36727621 20.27573008 70.2818571 17.62890625 65.1171875 C16.046849 61.95514541 16.046849 61.95514541 14 59 C13.51273438 59.28875 13.02546875 59.5775 12.5234375 59.875 C4.93102046 63.85066565 -3.30847405 64.51207704 -11.6171875 62.3046875 C-13.89510885 61.36671988 -15.90636701 60.29586568 -18 59 C-19.04607422 58.38125 -19.04607422 58.38125 -20.11328125 57.75 C-27.16925305 53.07259496 -32.2689051 45.30925553 -34 37 C-34.92935149 27.18266879 -32.52234728 19.19157805 -26.87109375 11.14453125 C-19.46593208 2.65719564 -10.94775573 -0.43791023 0 0 Z " fill="#E9A27F" transform="translate(132,218)"/>
<path d="M0 0 C0.67753232 2.83111718 1.34218727 5.66429376 2 8.5 C2.19078125 9.29148437 2.3815625 10.08296875 2.578125 10.8984375 C3.76558396 16.07236583 4.60770367 20.69887065 4 26 C2.39867006 28.49913441 0.96142631 30.4030728 -1 32.5625 C-16.58908287 51.15277039 -22.18557043 73.78927535 -22.4140625 97.76171875 C-22.43342865 99.03352493 -22.4527948 100.30533112 -22.4727478 101.61567688 C-22.52201768 104.95774007 -22.56344206 108.29970411 -22.60089111 111.64190674 C-22.64127034 115.06800731 -22.69220577 118.49395032 -22.7421875 121.91992188 C-22.83773135 128.613179 -22.92291488 135.30650619 -23 142 C-30.27775419 140.50644274 -36.78148799 138.27270328 -43.625 135.375 C-44.60339844 134.97410156 -45.58179688 134.57320312 -46.58984375 134.16015625 C-55.01860154 130.62904241 -62.99670617 126.38952314 -71 122 C-71.02500545 117.09277707 -71.04300225 112.18559248 -71.05493164 107.27832031 C-71.05991292 105.61425123 -71.06670037 103.95018641 -71.07543945 102.28613281 C-71.22830304 72.39680546 -65.42724369 46.33898349 -43.8125 24.3125 C-33.09537156 13.7802032 -15.77160508 0 0 0 Z " fill="#0D85A4" transform="translate(201,358)"/>
<path d="M0 0 C12.0242704 9.04714705 20.84795028 20.96658792 23.73046875 35.91796875 C24.12739851 38.98410736 24.13138955 41.91234561 24 45 C22.06218903 44.71040663 20.12477095 44.41818419 18.1875 44.125 C17.10855469 43.96257813 16.02960938 43.80015625 14.91796875 43.6328125 C12.77618017 43.28688055 10.63582139 42.92639323 8.50927734 42.49658203 C-10.30815065 38.74254056 -29.44177067 40.79650752 -48 45 C-48.80518066 45.18191895 -49.61036133 45.36383789 -50.43994141 45.55126953 C-62.51241844 48.38277274 -73.70572959 52.94658546 -85 58 C-86.68610204 58.74891381 -88.37229777 59.49761674 -90.05859375 60.24609375 C-91.37246192 60.83058064 -92.68628928 61.41515932 -94 62 C-98.56755035 53.24857353 -97.24697738 38.52690272 -94.4375 29.375 C-86.88114125 10.57822148 -72.98404472 -0.13588844 -55 -8 C-37.40881457 -15.35631391 -15.58741145 -9.89088562 0 0 Z " fill="#2F373A" transform="translate(270,12)"/>
<path d="M0 0 C0.01417969 1.29292969 0.02835938 2.58585937 0.04296875 3.91796875 C0.32487227 16.37090682 0.99186945 28.94563224 10.12109375 38.50390625 C19.93347038 46.31708764 29.85456986 48.05810163 42 47 C49.76719651 45.39122711 55.8567057 40.94471491 61 35 C64.83310612 28.90728239 67.0097429 23.20030908 67.31640625 16.015625 C67.35830078 15.08105469 67.40019531 14.14648438 67.44335938 13.18359375 C67.48267578 12.21550781 67.52199219 11.24742187 67.5625 10.25 C67.62727539 8.77466797 67.62727539 8.77466797 67.69335938 7.26953125 C67.79922052 4.84648725 67.90130171 2.4233446 68 0 C71.53458899 0.56434614 74.14625767 1.43934623 77.20703125 3.28515625 C77.95791016 3.73310547 78.70878906 4.18105469 79.48242188 4.64257812 C80.25134766 5.11115234 81.02027344 5.57972656 81.8125 6.0625 C82.60076172 6.53494141 83.38902344 7.00738281 84.20117188 7.49414062 C86.13812608 8.65631315 88.07078295 9.82504417 90 11 C87.3635362 25.35901444 84.48839595 39.64089528 81.25 53.875 C81.09570526 54.55329865 80.94141052 55.23159729 80.78244019 55.93045044 C78.15051721 67.47618829 78.15051721 67.47618829 77 72 C75.02 71.34 73.04 70.68 71 70 C70.64808594 70.50789063 70.29617188 71.01578125 69.93359375 71.5390625 C62.77396721 81.52141386 53.35506497 88.73490476 41 91 C27.14101837 91.94994244 15.64951055 89.49183228 4.95703125 80.23046875 C1.69534623 77.03832926 -1.24236658 73.64007611 -4 70 C-6.475 70.99 -6.475 70.99 -9 72 C-12.13885899 60.44161336 -14.51541074 48.75137686 -16.80517578 37.00146484 C-18.21330093 29.80260163 -19.73504162 22.65146874 -21.44702148 15.51831055 C-22 13 -22 13 -22 11 C-20.3034668 9.76318359 -20.3034668 9.76318359 -17.94921875 8.3984375 C-17.10552734 7.90859375 -16.26183594 7.41875 -15.39257812 6.9140625 C-14.49990234 6.40617187 -13.60722656 5.89828125 -12.6875 5.375 C-11.80642578 4.859375 -10.92535156 4.34375 -10.01757812 3.8125 C-3.38604704 0 -3.38604704 0 0 0 Z " fill="#D7D3CD" transform="translate(222,345)"/>
<path d="M0 0 C7.95605693 4.79703433 13.24237773 11.58603026 15.65625 20.6015625 C16.7682457 31.96732911 15.50491459 40.94190596 8.71875 50.23046875 C3.15370864 56.62815834 -3.87694789 60.18224807 -12.296875 60.97265625 C-21.08731066 61.22160513 -27.91725378 60.83189641 -35.34375 55.6015625 C-36.21386719 55.02535156 -36.21386719 55.02535156 -37.1015625 54.4375 C-44.24299446 49.16217086 -47.59707403 41.05059974 -49.34375 32.6015625 C-50.43556557 24.70459508 -48.19819494 16.80270995 -43.59375 10.3515625 C-32.29856735 -3.4135741 -16.70827835 -8.03973609 0 0 Z " fill="#BFDAE3" transform="translate(324.34375,202.3984375)"/>
<path d="M0 0 C1.12148437 0.60328125 1.12148437 0.60328125 2.265625 1.21875 C9.91276216 5.77664632 14.71203944 12.48701406 17.53515625 20.90625 C18.4366797 24.96689344 18.3416546 28.87435955 18 33 C17.94199219 33.7425 17.88398438 34.485 17.82421875 35.25 C16.64796184 43.1861912 11.71669351 49.85365912 5.68359375 54.9609375 C-3.46302008 61.30630412 -13.14450386 62.26300283 -24 61 C-32.45493692 58.67245654 -39.12062965 52.76392174 -43.60546875 45.34375 C-47.85124367 36.49541234 -48.89897035 27.10383326 -45.9609375 17.66015625 C-41.87086272 8.60029786 -35.00535549 1.31956061 -25.65234375 -2.37890625 C-17.2673179 -4.34241009 -7.62551519 -4.30157267 0 0 Z " fill="#BFDAE3" transform="translate(219,202)"/>
<path d="M0 0 C3.06445312 1.42700195 3.06445312 1.42700195 6.28125 3.23828125 C6.85782349 3.56032028 7.43439697 3.88235931 8.02844238 4.2141571 C9.240866 4.89341179 10.4509245 5.57690373 11.65869141 6.2644043 C13.49023932 7.3069441 15.32825402 8.33718742 17.16796875 9.36523438 C22.57676498 12.40454772 27.86879571 15.51145372 33 19 C27.04318761 30.67535229 18.56511095 35.51051035 6.625 40.375 C-6.45159505 42.62958535 -17.51874096 40.72930996 -28.671875 33.6796875 C-32.19279317 31.13942774 -35.13697572 28.25163423 -38 25 C-38.66 24.2575 -39.32 23.515 -40 22.75 C-40.495 21.88375 -40.495 21.88375 -41 21 C-39.65339476 16.96018427 -37.9454731 16.57752596 -34.2421875 14.56640625 C-33.66091095 14.24719711 -33.0796344 13.92798798 -32.48074341 13.59910583 C-30.61685088 12.5780257 -28.74622685 11.57006518 -26.875 10.5625 C-25.03074625 9.55761815 -23.18791976 8.55015805 -21.34527588 7.54232788 C-19.59013366 6.58572541 -17.82977913 5.63870616 -16.06933594 4.69189453 C-13.64722008 3.35676385 -11.33399314 1.95439311 -9.0078125 0.46484375 C-5.29371864 -1.34396819 -3.96128573 -0.98141865 0 0 Z " fill="#F0EEE9" transform="translate(260,395)"/>
<path d="M0 0 C1.03921387 6.60041241 2.01548773 13.79233582 -1 20 C-3.00396394 21.2740719 -4.80293839 21.83885641 -7.08984375 22.453125 C-9.15589122 22.90939237 -9.15589122 22.90939237 -11 24.625 C-12.59676513 28.41731719 -12.76394874 31.96404437 -12 36 C-9.53488235 39.40766264 -8.0509857 40.75870226 -3.9375 41.703125 C-1 43 -1 43 0.2421875 46.08203125 C0.45101562 47.31308594 0.65984375 48.54414063 0.875 49.8125 C1.09929687 51.03582031 1.32359375 52.25914062 1.5546875 53.51953125 C1.92422039 56.40772252 2.09954144 59.09670813 2 62 C2.99 62.33 3.98 62.66 5 63 C-3.57920048 63.43933317 -10.5657934 63.60144316 -18 59 C-19.04607422 58.38125 -19.04607422 58.38125 -20.11328125 57.75 C-27.16925305 53.07259496 -32.2689051 45.30925553 -34 37 C-34.92935149 27.18266879 -32.52234728 19.19157805 -26.87109375 11.14453125 C-19.46593208 2.65719564 -10.94775573 -0.43791023 0 0 Z " fill="#F5BA96" transform="translate(132,218)"/>
<path d="M0 0 C0.65462134 9.98297545 -1.64762416 17.68035588 -8.1875 25.375 C-12.14724546 29.45848751 -16.42950524 33.39593083 -22 35 C-29.32771061 34.51600326 -34.99330938 30.26404827 -39.87109375 24.96875 C-44.31978509 19.19987344 -47.18515193 14.42664958 -47 7 C-45.96782349 6.94839722 -45.96782349 6.94839722 -44.91479492 6.89575195 C-31.31719976 6.1660366 -18.50806576 4.94827256 -5.4375 1.0234375 C-2 0 -2 0 0 0 Z " fill="#F5B996" transform="translate(290,357)"/>
<path d="M0 0 C5.28 0 10.56 0 16 0 C16.350625 1.753125 16.70125 3.50625 17.0625 5.3125 C18.75117679 12.16463083 21.9437601 17.30171599 26 23 C26.66 23.99 27.32 24.98 28 26 C25.125 31.875 25.125 31.875 24 33 C19.47665583 33.26657653 14.94774056 33.27125062 10.41748047 33.29516602 C8.14098901 33.3123791 5.86594989 33.35624946 3.58984375 33.40039062 C2.14584404 33.41051731 0.70183195 33.4190335 -0.7421875 33.42578125 C-2.0607373 33.44036377 -3.37928711 33.45494629 -4.73779297 33.4699707 C-8 33 -8 33 -9.89990234 31.09863281 C-11.82970935 27.41718119 -11.82970935 27.41718119 -12 25 C-10.890625 23.03515625 -10.890625 23.03515625 -9.25 21.0625 C-5.22460223 16.14799738 -2.75381795 11.93321111 -1.3125 5.6875 C-0.6628125 2.8721875 -0.6628125 2.8721875 0 0 Z " fill="#F0B593" transform="translate(248,237)"/>
<path d="M0 0 C0.33 0 0.66 0 1 0 C0.85616078 1.52102323 0.70980986 3.04180897 0.5625 4.5625 C0.48128906 5.40941406 0.40007812 6.25632813 0.31640625 7.12890625 C0.09335393 9.15289956 -0.20282566 11.16948412 -0.55078125 13.17578125 C-0.91454524 16.27251992 -1.01262271 19.0056148 -0.921875 22.1015625 C-0.89609375 23.00390625 -0.8703125 23.90625 -0.84375 24.8359375 C-0.78096794 26.70370384 -0.70269948 28.57101046 -0.609375 30.4375 C-0.4518372 37.31008643 -0.4518372 37.31008643 -3.38671875 41.00390625 C-4.24910156 41.66261719 -5.11148438 42.32132813 -6 43 C-9.54327261 46.9727602 -11.76761944 51.21463102 -14 56 C-19.46737191 54.25192871 -24.75824848 52.34205919 -30 50 C-29.37226906 45.44895072 -27.56681353 41.67158781 -25.5 37.625 C-25.14397705 36.92528076 -24.7879541 36.22556152 -24.42114258 35.50463867 C-17.72665143 22.5226651 -10.402077 10.402077 0 0 Z " fill="#E6A07D" transform="translate(177,159)"/>
<path d="M0 0 C0.33 0 0.66 0 1 0 C1.03996094 0.89203125 1.07992188 1.7840625 1.12109375 2.703125 C1.44507393 6.33490277 1.86230839 9.53090249 3 13 C5.75813756 15.19059771 8.6727819 15.96405297 12 17 C14.3772996 18.94506331 14.86492332 20.07870781 15.3046875 23.078125 C15.52983306 27.07776966 15.33603726 29.41504625 13.3125 32.9375 C9.56176013 36.28275448 7.01185351 37 2 37 C2.02320313 37.61746094 2.04640625 38.23492187 2.0703125 38.87109375 C2.19833108 44.87882303 1.56840747 50.20249382 0 56 C-1.41782145 55.93940934 -2.83444466 55.85045877 -4.25 55.75 C-5.03890625 55.70359375 -5.8278125 55.6571875 -6.640625 55.609375 C-9.67898672 54.82463257 -10.96841312 53.32980147 -13 51 C-12.59007812 49.82308594 -12.18015625 48.64617187 -11.7578125 47.43359375 C-7.40465643 34.32841607 -5.67820106 21.76635748 -5 8 C-4.34 8 -3.68 8 -3 8 C-1.92474806 5.34771188 -0.90543849 2.71631546 0 0 Z " fill="#E9A27F" transform="translate(378,224)"/>
<path d="M0 0 C8.70881204 0.567966 16.58657351 4.45845558 22.4609375 10.9453125 C28.99085858 19.66292288 30.11103386 28.28729456 29 39 C27.02311408 47.60037754 22.7517189 54.44676431 15.4375 59.5 C7.16758553 64.46476158 7.16758553 64.46476158 2.83203125 63.53515625 C2.22746094 63.35855469 1.62289063 63.18195313 1 63 C1.51949219 62.53851563 2.03898437 62.07703125 2.57421875 61.6015625 C10.00307396 54.65331715 15.18896061 46.05177409 16.37109375 35.7734375 C16.62594856 22.73086787 12.35068456 12.87023556 3.5078125 3.40234375 C2.3640911 2.2424681 1.18618619 1.11641054 0 0 Z " fill="#FBFBFC" transform="translate(311,199)"/>
<path d="M0 0 C8.98920577 0.93717252 15.92795548 4.21641928 21.85546875 11.1796875 C27.45205683 19.16691691 29.80752428 26.24876337 29 36 C28.94199219 36.7425 28.88398438 37.485 28.82421875 38.25 C27.64796184 46.1861912 22.71669351 52.85365912 16.68359375 57.9609375 C7.24088283 64.51171834 7.24088283 64.51171834 1.625 63.625 C1.08875 63.41875 0.5525 63.2125 0 63 C0.886875 62.319375 1.77375 61.63875 2.6875 60.9375 C9.09130008 55.51310463 11.6943244 49.76221827 14.10546875 41.76953125 C15 39 15 39 16.11328125 37.01171875 C17.90696654 32.94234463 17.17256509 29.56175445 15.8984375 25.4140625 C15.40514902 24.14529868 14.89676507 22.88232111 14.375 21.625 C14.10502197 20.9637915 13.83504395 20.30258301 13.55688477 19.62133789 C11.37144323 14.47043785 8.70835712 10.20545593 5 6 C4.0406468 4.83417183 3.08224037 3.6675636 2.125 2.5 C1.073125 1.2625 1.073125 1.2625 0 0 Z " fill="#F9FAFA" transform="translate(208,199)"/>
<path d="M0 0 C2.53959074 0.96301281 5.03979168 1.99024224 7.53515625 3.0625 C18.85713399 7.36879898 31.03167597 5.28108374 42 1 C42.71414063 0.6184375 43.42828125 0.236875 44.1640625 -0.15625 C46.92818951 -1.4265722 49.11432883 -0.65583436 52 0 C52.495 3.465 52.495 3.465 53 7 C40.48326726 15.83534076 26.95783962 17.4863962 12 16 C4.05157168 14.5076746 -2.41887221 11.64550197 -9 7 C-8.74438677 4.6568787 -8.40729228 2.32156597 -8 0 C-4.99552601 -1.502237 -3.28001811 -0.76143278 0 0 Z " fill="#EAA27F" transform="translate(234,290)"/>
<path d="M0 0 C3.45798676 2.43630885 5.49990489 4.92484902 6.75 8.9375 C7.17363219 13.88552399 6.51634355 16.98965403 3.375 20.875 C-1.37844064 24.60984622 -3.88636369 25.38792676 -9.80859375 25.25 C-13.34989018 24.79671406 -14.92756101 23.61182368 -17.25 20.9375 C-20.095108 16.52267724 -20.90293024 13.16094192 -20.25 7.9375 C-15.73426036 -0.75948004 -9.11350655 -2.9794156 0 0 Z " fill="#353D41" transform="translate(219.25,219.0625)"/>
<path d="M0 0 C3.36637548 2.29525601 4.92706799 4.22913599 6.75 7.875 C7.62159882 13.86724187 6.14453687 17.10429953 2.75 21.875 C-1.03255382 25.32379907 -4.95730242 25.39085371 -9.87890625 25.22265625 C-13.3637483 24.71169918 -14.95813824 23.51411354 -17.25 20.875 C-19.83865384 16.76885942 -20.9413085 13.71415951 -20.25 8.875 C-18.78685583 5.19354047 -17.00564966 2.52569832 -14 -0.0625 C-9.0105807 -1.99023018 -4.92600955 -1.70515715 0 0 Z " fill="#353D41" transform="translate(306.25,219.125)"/>
<path d="M0 0 C0.33 0.66 0.66 1.32 1 2 C10.9 2 20.8 2 31 2 C31.33 1.34 31.66 0.68 32 0 C33.32 1.98 34.64 3.96 36 6 C33.125 11.875 33.125 11.875 32 13 C27.47665583 13.26657653 22.94774056 13.27125062 18.41748047 13.29516602 C16.14098901 13.3123791 13.86594989 13.35624946 11.58984375 13.40039062 C10.14584404 13.41051731 8.70183195 13.4190335 7.2578125 13.42578125 C5.27998779 13.44765503 5.27998779 13.44765503 3.26220703 13.4699707 C0 13 0 13 -1.89501953 11.09448242 C-3.93234076 7.23275489 -3.93234076 7.23275489 -4 5 C-2.0625 2.25 -2.0625 2.25 0 0 Z " fill="#E9A27F" transform="translate(240,257)"/>
<path d="M0 0 C1.875 1.0625 1.875 1.0625 3 3 C2.8125 6.625 2.8125 6.625 2 10 C-0.76250036 11.38125018 -2.94731099 11.19079306 -6 11 C-8 9 -8 9 -8.3125 6.0625 C-8 3 -8 3 -6.8125 1.125 C-4.34492892 -0.40659584 -2.85480169 -0.42822025 0 0 Z " fill="#F5F5F5" transform="translate(220,223)"/>
<path d="M0 0 C2.9375 0.8125 2.9375 0.8125 4.9375 3.8125 C4.6133631 7.13490324 4.32973697 8.42026303 1.9375 10.8125 C-1.0625 11.0625 -1.0625 11.0625 -4.0625 10.8125 C-6.0625 8.8125 -6.0625 8.8125 -6.375 5.3125 C-6.271875 4.1575 -6.16875 3.0025 -6.0625 1.8125 C-3.0625 -0.1875 -3.0625 -0.1875 0 0 Z " fill="#F4F5F5" transform="translate(306.0625,223.1875)"/>
<path d="M0 0 C0.33 0.66 0.66 1.32 1 2 C-3.97648568 9.3535699 -3.97648568 9.3535699 -7.375 11.5 C-11.09718306 12.20898725 -14.19877353 12.30655052 -18 12 C-19.7421875 10.48046875 -19.7421875 10.48046875 -21 9 C-20.154375 8.76925781 -19.30875 8.53851563 -18.4375 8.30078125 C-11.51399057 6.31027229 -5.89002555 4.15766509 0 0 Z " fill="#E09D7C" transform="translate(335,266)"/>
</svg>
