<?xml version="1.0" encoding="UTF-8"?>
<svg version="1.1" xmlns="http://www.w3.org/2000/svg" width="512" height="512">
<path d="M0 0 C3.79289699 1.685732 6.79546746 2.08066263 10.8125 1.25 C14.24970747 -0.13311582 17.54739259 -1.6799284 20.859375 -3.33984375 C34.29369434 -9.75490894 53.1636628 -6.0940307 66.8125 -1.75 C67.46347656 -1.54632812 68.11445313 -1.34265625 68.78515625 -1.1328125 C84.61759977 3.9663045 99.81762323 11.87522846 112.8125 22.25 C113.63621094 22.87261719 114.45992188 23.49523437 115.30859375 24.13671875 C141.34367685 44.16058141 154.66773923 69.91916609 160.3125 101.8125 C163.75551136 121.15699594 170.69469586 136.61996023 180.28515625 153.640625 C185.59458386 163.17661486 189.48502955 172.55862164 191.8125 183.25 C191.99071289 184.06049805 192.16892578 184.87099609 192.35253906 185.70605469 C194.44464844 196.54142189 194.44958336 207.60702733 194.76611328 218.60693359 C195.41905671 240.36519825 200.21072163 258.02365978 209.24316406 277.76025391 C218.17182999 297.30768074 221.05178172 315.18720666 221.84155273 336.46679688 C222.37696545 350.4514988 223.54551157 364.12944069 228.4375 377.375 C228.8072998 378.39025757 228.8072998 378.39025757 229.18457031 379.42602539 C230.7360913 383.61297457 232.41788251 387.74088028 234.1328125 391.86328125 C234.53419434 392.82927246 234.93557617 393.79526367 235.34912109 394.79052734 C236.13588866 396.66895469 236.93251188 398.54329622 237.74072266 400.41259766 C243.52870064 414.1031488 244.90293864 428.05847408 239.8125 442.25 C232.77633817 457.40481009 219.26591339 467.70922037 205.75 476.8125 C205.09435059 477.25464844 204.43870117 477.69679688 203.76318359 478.15234375 C199.06367405 481.25 199.06367405 481.25 196.8125 481.25 C196.915625 482.19875 197.01875 483.1475 197.125 484.125 C197.09233609 489.49276932 194.80002033 493.89080567 191.8125 498.25 C186.31785459 503.64494418 180.60195192 506.49549309 172.85281849 506.51006222 C171.65074216 506.51712781 170.44866583 506.5241934 169.21016294 506.5314731 C167.89306213 506.52905802 166.57596132 506.52664293 165.21894836 506.52415466 C163.80282581 506.52860766 162.38670575 506.53392191 160.97058934 506.54002339 C157.07903162 506.55420669 153.18755376 506.55586662 149.2959739 506.55542648 C145.09881381 506.55707441 140.90168665 506.57014053 136.70454407 506.58161926 C127.52677593 506.6044708 118.34903091 506.61239011 109.17123818 506.61744571 C103.43978484 506.6207027 97.70833821 506.62722522 91.97688866 506.6344471 C76.1058858 506.65401363 60.23488918 506.67041739 44.36387348 506.67332363 C42.84037291 506.67360499 42.84037291 506.67360499 41.28609456 506.67389202 C39.22711353 506.67425827 37.16813249 506.67462197 35.10915146 506.67498314 C34.08707923 506.67516595 33.065007 506.67534876 32.01196289 506.67553711 C30.47698159 506.67580793 30.47698159 506.67580793 28.91099056 506.67608423 C12.3313654 506.67962549 -4.24812983 506.70664465 -20.82770994 506.744035 C-37.85269031 506.7821223 -54.87760623 506.80148114 -71.90263015 506.80178314 C-81.46036114 506.80236764 -91.01793718 506.81085434 -100.57562828 506.83978081 C-108.71463382 506.86430039 -116.8534279 506.87157373 -124.99246039 506.85653328 C-129.14365999 506.84936659 -133.29444206 506.85021112 -137.44559479 506.87294388 C-141.25001958 506.89357786 -145.05370705 506.89089309 -148.85812423 506.87006903 C-150.87759133 506.86493776 -152.89707545 506.88431979 -154.91644591 506.90473074 C-162.66042395 506.83342508 -168.79508745 505.85829523 -175.1875 501.25 C-179.89726296 496.28530749 -183.08454793 491.39003815 -183.3125 484.4375 C-183.27125 483.385625 -183.23 482.33375 -183.1875 481.25 C-183.85910156 481.01925781 -184.53070313 480.78851563 -185.22265625 480.55078125 C-201.56234108 473.38198672 -219.32609645 458.3437119 -226.23046875 441.7421875 C-232.72902011 423.25335125 -227.30834349 407.4704174 -219.96142578 390.27539062 C-212.50419187 372.74636891 -209.13274286 356.22476713 -208.41201782 337.24591064 C-207.61853878 317.34542697 -205.92067189 299.55868578 -197.21875 281.42675781 C-189.05154102 264.18745023 -182.40106439 247.44659388 -181.79296875 228.1796875 C-181.72404669 226.37627367 -181.65435858 224.57288899 -181.58398438 222.76953125 C-181.4780278 219.97101692 -181.3764936 217.17268516 -181.28881836 214.37353516 C-180.4051385 186.85884592 -173.42093291 165.23083179 -160.00390625 141.359375 C-151.85151218 126.74404449 -148.30189865 111.93581987 -145.41748047 95.56640625 C-143.43157908 84.5701156 -140.58072773 74.23378023 -135.5 64.25 C-134.9884436 63.23945557 -134.9884436 63.23945557 -134.46655273 62.20849609 C-128.96821835 51.68093867 -121.28417761 42.86027283 -113.1875 34.25 C-112.39859375 33.36441406 -112.39859375 33.36441406 -111.59375 32.4609375 C-87.22394169 6.22609284 -33.98795037 -18.66005118 0 0 Z " fill="#67535D" transform="translate(249.1875,5.75)"/>
<path d="M0 0 C3.57053616 1.63357864 6.06596402 3.72202968 8.92578125 6.3671875 C14.83915861 11.02216252 20.75889355 13.00314847 27.9375 14.875 C54.78309202 22.25648163 70.88635835 33.05464775 86.67822266 56.09716797 C89.29177779 59.85964464 92.10470225 63.45213514 95 67 C95.49757813 67.62003906 95.99515625 68.24007812 96.5078125 68.87890625 C99.34341041 72.36498295 99.34341041 72.36498295 102.79400635 75.20298767 C105.90893979 77.29272535 107.71936212 78.87806937 108.64831543 82.59182739 C108.89462128 85.85304871 108.91751074 89.04627067 108.859375 92.31640625 C108.8623056 94.12672585 108.8623056 94.12672585 108.86529541 95.97361755 C108.86129712 98.5331934 108.84001442 101.09279214 108.80273438 103.65209961 C108.75087139 107.49788394 108.76144692 111.33954212 108.78125 115.18554688 C108.72226535 144.50210355 101.91785429 170.11223196 83 193 C82.42894531 193.71800781 81.85789062 194.43601562 81.26953125 195.17578125 C73.60277907 204.37915326 63.44795411 212.17325636 53 218 C52.34 218 51.68 218 51 218 C51.04190163 224.36846847 51.11445208 230.73607938 51.20751953 237.10400391 C51.2356063 239.26668545 51.25688148 241.4294673 51.27099609 243.59228516 C51.29259638 246.71568707 51.33933393 249.83789843 51.390625 252.9609375 C51.39246796 254.39280899 51.39246796 254.39280899 51.39434814 255.85360718 C51.58424533 264.71544365 54.225009 273.13244314 60 280 C65.04035192 284.50595316 70.98888716 286.92793318 77.21875 289.30859375 C78.00847198 289.61276215 78.79819397 289.91693054 79.61184692 290.23031616 C87.19278722 293.12255972 94.85230292 295.76037463 102.54376221 298.34124756 C106.64307242 299.71941859 110.73549619 301.11776083 114.828125 302.515625 C115.66538116 302.80158539 116.50263733 303.08754578 117.36526489 303.38217163 C125.69176885 306.23015235 134.00833939 309.10465932 142.300354 312.05169678 C143.82529484 312.59177415 145.35174615 313.12760935 146.87982178 313.65875244 C164.12608249 319.66147793 178.52879269 327.02532529 187 344 C192.3928036 355.54948032 191.64223761 368.03574205 191.57641602 380.50268555 C191.56249227 384.18954772 191.59677407 387.87389571 191.63476562 391.56054688 C191.63571651 393.92968811 191.63385964 396.2988325 191.62890625 398.66796875 C191.64216446 399.75675827 191.65542267 400.84554779 191.66908264 401.96733093 C191.58110348 409.25666467 190.21760204 414.95524425 186 421 C180.382411 426.33151834 174.88183602 429.2453194 167.04031849 429.26006222 C165.83824216 429.26712781 164.63616583 429.2741934 163.39766294 429.2814731 C162.08056213 429.27905802 160.76346132 429.27664293 159.40644836 429.27415466 C157.99032581 429.27860766 156.57420575 429.28392191 155.15808934 429.29002339 C151.26653162 429.30420669 147.37505376 429.30586662 143.4834739 429.30542648 C139.28631381 429.30707441 135.08918665 429.32014053 130.89204407 429.33161926 C121.71427593 429.3544708 112.53653091 429.36239011 103.35873818 429.36744571 C97.62728484 429.3707027 91.89583821 429.37722522 86.16438866 429.3844471 C70.2933858 429.40401363 54.42238918 429.42041739 38.55137348 429.42332363 C37.02787291 429.42360499 37.02787291 429.42360499 35.47359456 429.42389202 C33.41461353 429.42425827 31.35563249 429.42462197 29.29665146 429.42498314 C28.27457923 429.42516595 27.252507 429.42534876 26.19946289 429.42553711 C24.66448159 429.42580793 24.66448159 429.42580793 23.09849056 429.42608423 C6.5188654 429.42962549 -10.06062983 429.45664465 -26.64020994 429.494035 C-43.66519031 429.5321223 -60.69010623 429.55148114 -77.71513015 429.55178314 C-87.27286114 429.55236764 -96.83043718 429.56085434 -106.38812828 429.58978081 C-114.52713382 429.61430039 -122.6659279 429.62157373 -130.80496039 429.60653328 C-134.95615999 429.59936659 -139.10694206 429.60021112 -143.25809479 429.62294388 C-147.06251958 429.64357786 -150.86620705 429.64089309 -154.67062423 429.62006903 C-156.69009133 429.61493776 -158.70957545 429.63431979 -160.72894591 429.65473074 C-168.47292395 429.58342508 -174.60758745 428.60829523 -181 424 C-186.06918011 418.63824924 -189.22756473 413.18891337 -189.29052734 405.68164062 C-189.30328705 404.64285767 -189.31604675 403.60407471 -189.32919312 402.53381348 C-189.33141876 401.41921753 -189.33364441 400.30462158 -189.3359375 399.15625 C-189.3425943 397.99557007 -189.3492511 396.83489014 -189.35610962 395.63903809 C-189.36622983 393.18124981 -189.37092684 390.72343409 -189.37060547 388.265625 C-189.37495193 384.54119238 -189.41120642 380.81797097 -189.44921875 377.09375 C-189.45509265 374.69792068 -189.4590582 372.30208578 -189.4609375 369.90625 C-189.47530853 368.8078479 -189.48967957 367.7094458 -189.50448608 366.57775879 C-189.42170438 352.26343366 -184.47471 339.98165159 -174.9375 329.3125 C-163.64137975 319.17256141 -148.99593932 314.80750156 -134.91601562 310.0173645 C-131.32225374 308.79455258 -127.73472446 307.55485412 -124.1484375 306.31030273 C-119.35167476 304.646437 -114.55315812 302.98782426 -109.75292969 301.33398438 C-101.24682734 298.39906175 -92.75828629 295.41666993 -84.28790283 292.38021851 C-82.05682172 291.58280863 -79.82228441 290.79571396 -77.58740234 290.0090332 C-76.24553854 289.52879885 -74.90388977 289.04796306 -73.5625 288.56640625 C-72.42941406 288.16365479 -71.29632813 287.76090332 -70.12890625 287.34594727 C-60.61206613 283.25213175 -55.08967774 276.82058413 -50.90664673 267.58638 C-49.97657237 264.93316829 -49.72642202 262.91709482 -49.68115234 260.11791992 C-49.66128265 259.17732224 -49.64141296 258.23672455 -49.62094116 257.2676239 C-49.60938995 256.2653627 -49.59783875 255.2631015 -49.5859375 254.23046875 C-49.56657135 253.19432938 -49.5472052 252.15819 -49.5272522 251.09065247 C-49.46759643 247.78968471 -49.42112669 244.48868181 -49.375 241.1875 C-49.33680737 238.94594855 -49.29775489 236.70441158 -49.2578125 234.46289062 C-49.16190642 228.97538914 -49.07681801 223.48780009 -49 218 C-49.77472656 217.69690918 -50.54945313 217.39381836 -51.34765625 217.08154297 C-73.14164968 208.19463291 -89.84005026 185.94979027 -98.7890625 164.9140625 C-106.19337643 146.54605143 -107.35116811 127.86921157 -107.6796875 108.28710938 C-107.72657458 106.09513858 -107.79495362 103.90352253 -107.88476562 101.71289062 C-108.65880185 82.43130177 -108.65880185 82.43130177 -104.69580078 77.51293945 C-101.9251226 75.03355449 -99.11083936 73.02554829 -96 71 C-93.92109315 68.87065076 -92.1516847 66.57129666 -90.375 64.1875 C-89.92463379 63.60129883 -89.47426758 63.01509766 -89.01025391 62.41113281 C-85.99572266 58.44772021 -83.16706384 54.37170546 -80.375 50.25 C-67.57743414 31.5423682 -52.99406721 22.29840874 -31.4375 16.5 C-19.14961362 13.19224359 -8.47121607 10.08194026 0 0 Z " fill="#CC906D" transform="translate(255,83)"/>
<path d="M0 0 C13.52514816 4.3768545 26.97929557 8.96447579 40.37512207 13.72183228 C41.94027331 14.27587007 43.5069006 14.82575811 45.07507324 15.3711853 C62.58768297 21.47297925 77.34561905 28.65828044 86 46 C91.3928036 57.54948032 90.64223761 70.03574205 90.57641602 82.50268555 C90.56249227 86.18954772 90.59677407 89.87389571 90.63476562 93.56054688 C90.63571651 95.92968811 90.63385964 98.2988325 90.62890625 100.66796875 C90.64216446 101.75675827 90.65542267 102.84554779 90.66908264 103.96733093 C90.58110348 111.25666467 89.21760204 116.95524425 85 123 C79.382411 128.33151834 73.88183602 131.2453194 66.04031849 131.26006222 C64.83824216 131.26712781 63.63616583 131.2741934 62.39766294 131.2814731 C61.08056213 131.27905802 59.76346132 131.27664293 58.40644836 131.27415466 C56.99032581 131.27860766 55.57420575 131.28392191 54.15808934 131.29002339 C50.26653162 131.30420669 46.37505376 131.30586662 42.4834739 131.30542648 C38.28631381 131.30707441 34.08918665 131.32014053 29.89204407 131.33161926 C20.71427593 131.3544708 11.53653091 131.36239011 2.35873818 131.36744571 C-3.37271516 131.3707027 -9.10416179 131.37722522 -14.83561134 131.3844471 C-30.7066142 131.40401363 -46.57761082 131.42041739 -62.44862652 131.42332363 C-63.97212709 131.42360499 -63.97212709 131.42360499 -65.52640544 131.42389202 C-67.58538647 131.42425827 -69.64436751 131.42462197 -71.70334854 131.42498314 C-72.72542077 131.42516595 -73.747493 131.42534876 -74.80053711 131.42553711 C-76.33551841 131.42580793 -76.33551841 131.42580793 -77.90150944 131.42608423 C-94.4811346 131.42962549 -111.06062983 131.45664465 -127.64020994 131.494035 C-144.66519031 131.5321223 -161.69010623 131.55148114 -178.71513015 131.55178314 C-188.27286114 131.55236764 -197.83043718 131.56085434 -207.38812828 131.58978081 C-215.52713382 131.61430039 -223.6659279 131.62157373 -231.80496039 131.60653328 C-235.95615999 131.59936659 -240.10694206 131.60021112 -244.25809479 131.62294388 C-248.06251958 131.64357786 -251.86620705 131.64089309 -255.67062423 131.62006903 C-257.69009133 131.61493776 -259.70957545 131.63431979 -261.72894591 131.65473074 C-269.47292395 131.58342508 -275.60758745 130.60829523 -282 126 C-287.06918011 120.63824924 -290.22756473 115.18891337 -290.29052734 107.68164062 C-290.30328705 106.64285767 -290.31604675 105.60407471 -290.32919312 104.53381348 C-290.33141876 103.41921753 -290.33364441 102.30462158 -290.3359375 101.15625 C-290.3425943 99.99557007 -290.3492511 98.83489014 -290.35610962 97.63903809 C-290.36622983 95.18124981 -290.37092684 92.72343409 -290.37060547 90.265625 C-290.37495193 86.54119238 -290.41120642 82.81797097 -290.44921875 79.09375 C-290.45509265 76.69792068 -290.4590582 74.30208578 -290.4609375 71.90625 C-290.47530853 70.8078479 -290.48967957 69.7094458 -290.50448608 68.57775879 C-290.42170438 54.26343366 -285.47471 41.98165159 -275.9375 31.3125 C-264.18844893 20.79071285 -248.7580033 16.31004172 -234.1472168 11.27880859 C-230.40919035 9.99024114 -226.67993155 8.67839484 -222.95117188 7.36328125 C-220.57078904 6.53248752 -218.18994568 5.70301186 -215.80859375 4.875 C-214.69713486 4.48449463 -213.58567596 4.09398926 -212.4405365 3.69165039 C-211.40498123 3.33707764 -210.36942596 2.98250488 -209.30249023 2.6171875 C-208.39651596 2.30378418 -207.49054169 1.99038086 -206.55711365 1.66748047 C-203.86073853 0.96364874 -201.77034657 0.6809441 -199 1 C-197.00074841 3.07498081 -195.41257074 4.99255734 -193.75 7.3125 C-192.77825277 8.60745347 -191.80558533 9.90171688 -190.83203125 11.1953125 C-190.11394287 12.16452637 -190.11394287 12.16452637 -189.38134766 13.15332031 C-183.8635536 20.52988345 -177.80118784 27.43743471 -171.5546875 34.19921875 C-169.54795066 36.3992651 -167.59747775 38.62603314 -165.65625 40.8828125 C-151.66857502 56.89913359 -134.45768314 70.5093061 -116 81 C-114.71222656 81.78890625 -114.71222656 81.78890625 -113.3984375 82.59375 C-107.01684881 86.24037211 -101.28122308 87.28764632 -94 86 C-85.2563205 82.87725732 -77.52846132 77.3326601 -70 72 C-69.01 71.29875 -68.02 70.5975 -67 69.875 C-60.51086273 65.1433374 -54.56797064 60.02868252 -48.7265625 54.5390625 C-46.57145505 52.53215728 -44.38921269 50.62881479 -42.125 48.75 C-26.77969853 35.42297409 -14.60615403 18.59124444 -2.25585938 2.59130859 C-1 1 -1 1 0 0 Z " fill="#B3E59F" transform="translate(356,381)"/>
<path d="M0 0 C3.57053616 1.63357864 6.06596402 3.72202968 8.92578125 6.3671875 C14.83915861 11.02216252 20.75889355 13.00314847 27.9375 14.875 C54.78309202 22.25648163 70.88635835 33.05464775 86.67822266 56.09716797 C89.29177779 59.85964464 92.10470225 63.45213514 95 67 C95.49757813 67.62003906 95.99515625 68.24007812 96.5078125 68.87890625 C99.03304537 71.93959426 101.3884221 74.27643553 104.66015625 76.52734375 C106.95698105 78.47097358 107.88290974 79.4928951 108.56591797 82.45092773 C108.68829362 85.28867176 108.61226954 88.04027643 108.4375 90.875 C108.40591797 91.84953125 108.37433594 92.8240625 108.34179688 93.828125 C108.25965789 96.22188977 108.14491673 98.60935168 108 101 C91.93898203 91.52923014 79.78162615 77.1158268 69.4375 61.875 C57.68772182 44.65269491 46.3244255 37.74255026 26.27636719 32.59350586 C18.58736956 30.58522896 11.92245628 27.94397394 4.98828125 24.08984375 C1.02025348 22.64268068 -0.16519605 23.25773438 -4 25 C-4.78656982 25.37511719 -5.57313965 25.75023438 -6.38354492 26.13671875 C-14.30636309 29.85939415 -22.20506571 32.12188749 -30.68359375 34.22851562 C-46.72915297 38.44320207 -58.37393996 46.84255256 -66.96549988 61.05445862 C-71.74272026 70.03877843 -72.58456087 78.30416075 -72.49609375 88.36328125 C-72.49624929 89.72649716 -72.49774737 91.0897135 -72.50050354 92.45292664 C-72.50187837 95.29458443 -72.48949063 98.13573193 -72.46655273 100.97729492 C-72.43825225 104.57764437 -72.44089535 108.17714292 -72.45364285 111.77755451 C-72.46067898 114.58929916 -72.45272039 117.40085537 -72.44038582 120.21257591 C-72.43381624 122.17192388 -72.4379651 124.13129871 -72.44248962 126.09065247 C-72.18265645 151.17935537 -62.66223365 175.35111541 -46 194 C-45.30390625 194.90878906 -45.30390625 194.90878906 -44.59375 195.8359375 C-31.38089761 212.99653238 -6.73566311 225.28825929 14.375 228.34375 C24.40892013 228.94100715 33.30793206 225.26666233 42.58154297 221.86962891 C45.3727073 220.86598189 48.18344183 219.92969318 51 219 C51.0093457 220.31081543 51.01869141 221.62163086 51.02832031 222.97216797 C51.06844224 227.87403311 51.13426177 232.7752852 51.20751953 237.67675781 C51.23560097 239.79093501 51.25687876 241.90521469 51.27099609 244.01953125 C51.29260398 247.07344551 51.33934483 250.12614405 51.390625 253.1796875 C51.39246796 254.57874832 51.39246796 254.57874832 51.39434814 256.006073 C51.58692139 264.79726784 54.27629539 273.19343236 60 280 C67.51774845 286.72068596 77.68453241 289.62739857 87 293 C88.0825708 293.39396973 88.0825708 293.39396973 89.18701172 293.79589844 C93.11609183 295.22215177 97.05330013 296.62309667 101 298 C97.08266748 304.10015132 92.89665005 309.81287508 88.25 315.375 C87.64019287 316.11032959 87.03038574 316.84565918 86.40209961 317.60327148 C82.11780541 322.73936101 77.71614649 327.73642103 73.171875 332.64453125 C71.17376183 334.81154967 69.23550156 337.01642518 67.3125 339.25 C61.68042716 345.7110929 55.51708429 351.44592129 49 357 C48.12601563 357.763125 47.25203125 358.52625 46.3515625 359.3125 C35.48682829 368.6334516 23.76649336 376.49590011 11 383 C10.35417969 383.37125 9.70835937 383.7425 9.04296875 384.125 C3.66477585 386.42847076 -2.67306255 385.83295468 -8.06640625 383.90234375 C-11.14133948 382.39895397 -14.0669785 380.7637236 -17 379 C-17.90492188 378.47019531 -18.80984375 377.94039063 -19.7421875 377.39453125 C-30.86936612 370.60533966 -40.79757586 362.42590258 -50.28125 353.53515625 C-52.58578234 351.38624607 -54.92353963 349.30358709 -57.3125 347.25 C-63.75813026 341.64336706 -69.45650127 335.48730379 -75 329 C-75.81339844 328.06414062 -76.62679687 327.12828125 -77.46484375 326.1640625 C-83.30427566 319.3993085 -88.78115592 312.44128448 -94.02807617 305.20507812 C-94.50349854 304.55603516 -94.9789209 303.90699219 -95.46875 303.23828125 C-96.09426758 302.3726355 -96.09426758 302.3726355 -96.73242188 301.48950195 C-98.11822767 299.72317807 -98.11822767 299.72317807 -101 298 C-100.00145996 297.65743164 -99.00291992 297.31486328 -97.97412109 296.96191406 C-94.24746154 295.68085888 -90.52480837 294.38848701 -86.80322266 293.09277344 C-85.19621026 292.5350209 -83.58814706 291.98028599 -81.97900391 291.42871094 C-79.65760691 290.63239271 -77.34028634 289.8250665 -75.0234375 289.015625 C-74.31069672 288.77378479 -73.59795593 288.53194458 -72.86361694 288.28277588 C-63.13503403 284.8511917 -56.71064248 279.09641307 -52 270 C-50.44859984 266.57522364 -49.74188358 263.87313474 -49.68115234 260.11791992 C-49.66128265 259.17732224 -49.64141296 258.23672455 -49.62094116 257.2676239 C-49.60938995 256.2653627 -49.59783875 255.2631015 -49.5859375 254.23046875 C-49.56657135 253.19432938 -49.5472052 252.15819 -49.5272522 251.09065247 C-49.46759643 247.78968471 -49.42112669 244.48868181 -49.375 241.1875 C-49.33680737 238.94594855 -49.29775489 236.70441158 -49.2578125 234.46289062 C-49.16190642 228.97538914 -49.07681801 223.48780009 -49 218 C-49.77472656 217.69690918 -50.54945313 217.39381836 -51.34765625 217.08154297 C-73.14164968 208.19463291 -89.84005026 185.94979027 -98.7890625 164.9140625 C-106.19337643 146.54605143 -107.35116811 127.86921157 -107.6796875 108.28710938 C-107.72657458 106.09513858 -107.79495362 103.90352253 -107.88476562 101.71289062 C-108.65880185 82.43130177 -108.65880185 82.43130177 -104.69580078 77.51293945 C-101.9251226 75.03355449 -99.11083936 73.02554829 -96 71 C-93.92109315 68.87065076 -92.1516847 66.57129666 -90.375 64.1875 C-89.92463379 63.60129883 -89.47426758 63.01509766 -89.01025391 62.41113281 C-85.99572266 58.44772021 -83.16706384 54.37170546 -80.375 50.25 C-67.57743414 31.5423682 -52.99406721 22.29840874 -31.4375 16.5 C-19.14961362 13.19224359 -8.47121607 10.08194026 0 0 Z " fill="#B57F5F" transform="translate(255,83)"/>
<path d="M0 0 C0.00808685 0.56581787 0.01617371 1.13163574 0.02450562 1.71459961 C0.11159822 7.68623647 0.21112526 13.65758037 0.31738281 19.62890625 C0.3553038 21.84760559 0.39021558 24.06635873 0.421875 26.28515625 C0.79288073 51.97730302 3.30487542 74.27610521 16 97 C16.54398438 97.98613281 17.08796875 98.97226562 17.6484375 99.98828125 C23.93891024 110.5900292 32.57109388 119.37712717 42.1875 127 C42.732854 127.43248047 43.27820801 127.86496094 43.84008789 128.31054688 C46.99472112 130.71819075 50.23948147 132.74324647 53.7199707 134.65234375 C54.52352493 135.09441162 55.32707916 135.53647949 56.15498352 135.99194336 C56.76383896 136.32460205 57.3726944 136.65726074 58 137 C58.10194511 143.52859057 58.17169296 150.05697364 58.21972656 156.58618164 C58.239764 158.80435863 58.26700173 161.02248332 58.30175781 163.24047852 C58.35062253 166.44039872 58.37304812 169.63961674 58.390625 172.83984375 C58.41127014 173.82145981 58.43191528 174.80307587 58.45318604 175.81443787 C58.45613866 185.00383497 55.31897831 193.21279576 49 200 C41.89282831 206.23895366 32.88361403 208.87355532 24.11038208 211.89260864 C21.38052249 212.83210921 18.65650834 213.78711206 15.93334961 214.74584961 C11.00348413 216.47854289 6.06888645 218.19730027 1.13269043 219.91186523 C-7.50724441 222.91293211 -16.14304846 225.92552443 -24.7729187 228.95541382 C-27.87715865 230.04139039 -30.98535694 231.1154083 -34.09399414 232.1887207 C-50.38844226 237.86362326 -67.15020872 243.93136138 -75.65258789 260.19360352 C-81.92811928 273.26431077 -81.65812061 286.08508403 -81.75 300.3125 C-81.7782061 302.51760109 -81.80813987 304.7226808 -81.83984375 306.92773438 C-81.91315342 312.28507235 -81.96511795 317.64228112 -82 323 C-98.41582226 316.76918977 -116.24561528 301.79685804 -124 286 C-129.66444433 272.37987544 -129.38434255 258.0849022 -123.97314453 244.40380859 C-122.2938174 240.35975694 -120.5741909 236.3339644 -118.83984375 232.31323242 C-115.6754507 224.89090334 -113.09627985 217.46680536 -110.97729492 209.68334961 C-109.46376297 204.18491183 -107.44198415 199.15051523 -105 194 C-104.63390625 193.21359131 -104.2678125 192.42718262 -103.890625 191.61694336 C-95.068725 172.87597524 -84.15311958 155.61025567 -72.625 138.4375 C-58.86718384 117.92812084 -46.7280622 96.33495042 -45.60546875 71.01953125 C-45.5366356 69.67638959 -45.46694629 68.33329158 -45.39648438 66.99023438 C-45.28988034 64.90865025 -45.18812034 62.8273828 -45.10131836 60.74487305 C-44.39932765 44.31359749 -39.86909607 32.08956679 -27.96484375 20.53125 C-22.6509011 15.9944452 -16.92288982 12.02584574 -11.20703125 8.015625 C-8.54531207 6.1426741 -5.99437152 4.21389496 -3.51171875 2.109375 C-1 0 -1 0 0 0 Z " fill="#5A4650" transform="translate(148,164)"/>
<path d="M0 0 C3.9794259 3.37386109 7.89231222 6.79990889 11.75 10.3125 C15.23316245 13.46368176 18.78309659 16.486869 22.4375 19.4375 C27.29174223 23.364836 31.91632236 27.49186912 36.5 31.73046875 C38.53383079 33.57680577 40.59940825 35.29584806 42.75 37 C51.76669508 44.69453546 55.60828161 54.54393005 57 66 C57.12461448 68.92706966 57.11720984 71.84806364 57.09765625 74.77734375 C57.0962413 75.58869278 57.09482635 76.40004181 57.09336853 77.23597717 C57.08781357 79.80319047 57.07526967 82.37031348 57.0625 84.9375 C57.05747917 86.68814977 57.05291729 88.43880093 57.04882812 90.18945312 C57.03871386 94.45969739 57.01913005 98.72974876 57 103 C51.39 103 45.78 103 40 103 C39.9906543 101.79988281 39.98130859 100.59976563 39.97167969 99.36328125 C39.9316088 94.88260683 39.86580316 90.40260671 39.79248047 85.92236328 C39.76436965 83.98853257 39.74310621 82.05458907 39.72900391 80.12060547 C39.70743679 77.32982045 39.66071744 74.54037741 39.609375 71.75 C39.60814636 70.89446533 39.60691772 70.03893066 39.60565186 69.1574707 C39.43288367 61.97073755 37.4480582 56.7308372 32.6328125 51.359375 C31.76398438 50.58078125 30.89515625 49.8021875 30 49 C29.01664254 48.06938201 28.03494582 47.13700687 27.0546875 46.203125 C21.12342332 40.67366514 15.0973964 35.37399082 8.76953125 30.296875 C4.60915564 26.84652118 0.67580624 23.16891337 -3.2734375 19.48046875 C-5.77403718 17.2055679 -8.33529508 15.07846983 -11 13 C-7.61227103 8.30840284 -4.21814817 3.9700218 0 0 Z " fill="#9BDC9B" transform="translate(84,409)"/>
<path d="M0 0 C4.5142775 3.66866356 8.50151106 7.33534808 12 12 C12 12.66 12 13.32 12 14 C10.42713316 15.41438406 8.78860004 16.75604401 7.125 18.0625 C3.31164438 21.11025865 -0.39808809 24.20500341 -4 27.5 C-7.33194758 30.53856855 -10.73089383 33.43059915 -14.25 36.25 C-18.73169513 39.90696094 -23.127175 43.64339342 -27.4375 47.5 C-28.02885742 48.00950195 -28.62021484 48.51900391 -29.22949219 49.04394531 C-34.78732609 54.09854841 -38.02521494 60.1187285 -38.54589844 67.69360352 C-38.58643078 69.33834113 -38.60693517 70.98367108 -38.609375 72.62890625 C-38.62591125 73.50401352 -38.64244751 74.37912079 -38.65948486 75.28074646 C-38.70758249 78.04140506 -38.72924978 80.80151449 -38.75 83.5625 C-38.77819178 85.44859478 -38.80812364 87.33466439 -38.83984375 89.22070312 C-38.91333055 93.81375677 -38.9631377 98.40651237 -39 103 C-44.28 103 -49.56 103 -55 103 C-55.09951 96.91687695 -55.17177017 90.83423662 -55.21972656 84.75048828 C-55.23973625 82.68464902 -55.26695283 80.61886563 -55.30175781 78.55322266 C-55.35074716 75.56919497 -55.37307564 72.58592154 -55.390625 69.6015625 C-55.41127014 68.69072906 -55.43191528 67.77989563 -55.45318604 66.84146118 C-55.45764293 53.85748977 -49.04523837 45.04434976 -40.3125 36.0625 C-36.01353261 31.84719515 -31.48629507 28.03687144 -26.78515625 24.28125 C-22.98087949 21.16526454 -19.3989231 17.82907871 -15.78515625 14.49609375 C-12.04842266 11.14718384 -8.1503674 8.02130909 -4.21484375 4.91015625 C-1.81532968 3.01312831 -1.81532968 3.01312831 0 0 Z " fill="#9BDB9A" transform="translate(427,409)"/>
<path d="M0 0 C4.0369785 1.3456595 7.78927386 2.74076367 11.6875 4.375 C39.38232796 14.93286994 67.01902856 12.61839829 94.0715332 1.70849609 C96 1 96 1 100 0 C100 13.53 100 27.06 100 41 C99.67 41 99.34 41 99 41 C98.67 33.74 98.34 26.48 98 19 C95.89625 19.7425 93.7925 20.485 91.625 21.25 C88.76081284 22.20221578 85.88279258 23.1058272 83 24 C82.34209473 24.2077002 81.68418945 24.41540039 81.00634766 24.62939453 C54.79761235 32.58035917 27.15811637 28.43429364 2 19 C1.67 26.26 1.34 33.52 1 41 C0.67 41 0.34 41 0 41 C0 27.47 0 13.94 0 0 Z " fill="#9F6E50" transform="translate(206,302)"/>
<path d="M0 0 C4.12783564 0.69963316 6.38408253 2.07983041 9.796875 4.37890625 C16.36231774 8.70612987 24.1357216 8.45204727 31.6328125 7.08984375 C35.95126674 6.01317192 39.22009142 4.93960193 42.9375 2.4375 C46.50749832 0.08454656 48.49010857 -0.06184587 52.6875 0.625 C56.06871991 3.07098887 57.45686783 4.51796559 58.3125 8.625 C57.25937319 13.68000867 53.84393899 15.75124609 49.875 18.75 C41.80204749 23.4987956 34.23795704 24.82085813 25 24.875 C24.13955078 24.895625 23.27910156 24.91625 22.39257812 24.9375 C12.38507348 24.9978316 2.2167647 21.76879536 -5.25 14.9375 C-5.930625 14.174375 -6.61125 13.41125 -7.3125 12.625 C-7.6425 12.295 -7.9725 11.965 -8.3125 11.625 C-8.85691566 7.6326185 -8.6300546 6.06765187 -6.25 2.75 C-3.3125 0.625 -3.3125 0.625 0 0 Z " fill="#A06E50" transform="translate(231.3125,239.375)"/>
<path d="M0 0 C1.03253906 -0.01933594 2.06507813 -0.03867188 3.12890625 -0.05859375 C8.00718092 -0.02712101 10.65901669 0.01234263 14.6796875 2.94140625 C17.08388007 6.48578456 17.26293749 8.42884379 16.5 12.625 C14.2727994 15.30722008 12.46847279 16.48371713 8.99804688 16.98999023 C5.96784654 17.12807727 2.97015492 17.12092903 -0.0625 17.0625 C-1.10341797 17.06958984 -2.14433594 17.07667969 -3.21679688 17.08398438 C-11.83266317 17.01195462 -11.83266317 17.01195462 -15.5 13.625 C-16.28515625 11.7578125 -16.28515625 11.7578125 -16.5625 9.75 C-16.67722656 9.09257812 -16.79195313 8.43515625 -16.91015625 7.7578125 C-15.25181386 -0.86556793 -6.91001594 -0.12940105 0 0 Z " fill="#5B4750" transform="translate(305.5,156.375)"/>
<path d="M0 0 C1.03253906 -0.01933594 2.06507813 -0.03867188 3.12890625 -0.05859375 C7.99483813 -0.02720064 10.6714902 0.03709025 14.71484375 2.90625 C16.51615834 5.64960876 17.11467371 6.58585849 16.5625 9.75 C16.42521484 10.74386719 16.42521484 10.74386719 16.28515625 11.7578125 C15.19722026 14.34504336 13.8837515 15.16353331 11.5 16.625 C8.89038086 17.01318359 8.89038086 17.01318359 5.96484375 17.0234375 C4.38026367 17.02923828 4.38026367 17.02923828 2.76367188 17.03515625 C1.66603516 17.02355469 0.56839844 17.01195312 -0.5625 17 C-1.66400391 17.01160156 -2.76550781 17.02320313 -3.90039062 17.03515625 C-5.48303711 17.02935547 -5.48303711 17.02935547 -7.09765625 17.0234375 C-8.06195557 17.02005371 -9.02625488 17.01666992 -10.01977539 17.01318359 C-12.89681168 16.56289442 -13.76584802 15.91519059 -15.5 13.625 C-16.1875 11.7578125 -16.1875 11.7578125 -16.5 9.75 C-16.62375 9.09257812 -16.7475 8.43515625 -16.875 7.7578125 C-15.35546106 -0.88456521 -6.84047134 -0.12809871 0 0 Z " fill="#5B4750" transform="translate(206.5,156.375)"/>
<path d="M0 0 C2.9375 1.625 2.9375 1.625 5 5 C5.91629159 11.24270203 6.28753584 16.89312317 2.9375 22.375 C-0.79717131 24.44098839 -2.79310949 24.75123045 -7 24 C-9.9375 22.3125 -9.9375 22.3125 -12 19 C-12.69173087 13.30763137 -13.33666666 6.95444444 -10 2 C-6.24952518 -0.50031654 -4.44143734 -0.53603554 0 0 Z " fill="#5E4851" transform="translate(309,182)"/>
<path d="M0 0 C2.36497439 1.86708505 3.66030715 3.32061431 5 6 C6.07638267 17.2712642 6.07638267 17.2712642 2.9375 22.3125 C-0.79509713 24.45675792 -2.75999003 24.75714464 -7 24 C-9.9375 22.375 -9.9375 22.375 -12 19 C-12.91629159 12.75729797 -13.28753584 7.10687683 -9.9375 1.625 C-6.24576321 -0.41723737 -4.15867007 -0.68050965 0 0 Z " fill="#5E4851" transform="translate(210,182)"/>
</svg>
